<?xml version="1.0" standalone="no"?>
<!DOCTYPE svg PUBLIC "-//W3C//DTD SVG 1.1//EN" "http://www.w3.org/Graphics/SVG/1.1/DTD/svg11.dtd" >
<svg xmlns="http://www.w3.org/2000/svg">
<metadata></metadata>
<defs>
<font id="npe_icons_v1regular" horiz-adv-x="1024" >
<font-face units-per-em="1024" ascent="819" descent="-205" />
<missing-glyph horiz-adv-x="500" />
<glyph unicode="&#xd;" />
<glyph unicode="#" d="M386 826q-31 0 -53 -22.5t-22 -53.5v-452q0 -31 22 -53.5t53 -22.5h228q31 0 53 22.5t22 53.5v452q0 31 -22 53.5t-53 22.5h-228zM422 789h153v-38h-153v38zM386 712h229v-338h-229v338zM460 335h77v-75h-77v75z" />
<glyph unicode="$" d="M500 824q-124 0 -212 -88t-88 -212t88 -212t212 -88t212 88t88 212q0 41 -10.5 80t-30 72t-47 60.5t-60.5 47t-72 30t-80 10.5zM500 740q89 0 152.5 -63.5t63.5 -152.5t-63.5 -152.5t-152.5 -63.5q-59 0 -108.5 29t-78.5 78.5t-29 108.5q0 89 63.5 152.5t152.5 63.5z M485 693v-29q-16 0 -31.5 -4.5t-27.5 -14t-18.5 -23t-6.5 -31.5q0 -21 7 -34.5t19.5 -23t27.5 -15t30 -9.5v-91q-25 1 -36.5 15t-10.5 39h-43q0 -21 6.5 -37t18.5 -27t28.5 -17t36.5 -7v-29h29v29q5 1 22 7q17 5 28.5 15t18.5 26q7 15 7 37q0 20 -7.5 33.5t-19.5 23.5 q-13 9 -29 15q-4 2 -9 5.5t-11 5.5l-2 79q5 0 8 -1t4 -1.5t3.5 -3.5t3.5 -5q9 -10 10 -29h43q0 19 -7 32.5t-18 22.5t-26 13.5t-19 4.5v29h-29zM485 631v-75q-7 2 -15 4.5t-13.5 7t-9.5 11t-4 15.5q0 20 11 28.5t31 8.5zM514 505q3 0 2.5 -2t1.5 -3q9 -3 15.5 -8t10.5 -12 t4 -17q0 -23 -13 -33q-3 -2 -6 -5.5t-6 -4.5t-9 -2v87z" />
<glyph unicode="(" d="M750 763q-21 0 -36 -15t-15 -36v-188v-188t6.5 -26t18.5 -18.5t26 -6.5q21 0 36 15t15 36v188v188q0 21 -15 36t-36 15zM452.5 708q-22.5 0 -38.5 -16t-16 -38.5t16 -38.5q9 -9 22 -25.5t21 -28.5l8 -12h-266v-89h268q-43 -52 -53 -61q-11 -10 -14.5 -24t0.5 -28t14 -25 q16 -16 38.5 -16t37.5 16l142 152v64q-120 133 -142 154q-15 16 -37.5 16z" />
<glyph unicode="," d="M757 715l-260 -297l-256 294l-41 -41l300 -337l300 337zM500 334v-1v1z" />
<glyph unicode="." d="M500 715v-1v1zM500 714l-300 -337l43 -44l260 297l256 -294l41 41z" />
<glyph unicode="0" d="M480 825q-46 0 -89.5 -4.5t-81 -18t-37.5 -34.5v-103v-13v-86v-30v-87v-12v-117q0 -26 51.5 -39.5t121.5 -16.5v-20h20v-21h19v21h20v20h22v-20h20v-20h19v40h42v-41h19v20h21v20h21v-20h19v-20h21v20h20v366h-40v43v13v103q0 21 -37.5 34.5t-81 18t-89.5 4.5zM480 801 q52 0 95 -6t64.5 -13t24.5 -13q-3 -7 -24.5 -14t-64.5 -13t-95 -6t-95 6t-64.5 13t-24.5 14q3 6 24.5 13t64.5 13t95 6zM296 739q54 -27 184 -27t184 27v-87q-3 -6 -24 -13.5t-64.5 -13.5t-95.5 -6t-95.5 6t-64.5 13.5t-24 13.5v87zM296 623q54 -28 184 -28q49 0 93 5 l-113 -97q-47 2 -85.5 7.5t-57.5 12.5t-21 13v5v82zM664 623v-14h-39q24 6 39 14zM587 588h20v-74q-11 -2 -20 -3v77zM296 506q44 -22 149 -26v-75q-43 2 -77.5 8t-52 12t-19.5 12v69zM607 489v-23h-123v13q70 1 123 10zM296 407q44 -22 149 -26v-92q-43 2 -77.5 7.5t-52 12 t-19.5 12.5v86z" />
<glyph unicode="2" d="M500 722q-18 0 -27 -12q-239 -327 -252 -346q-10 -14 -0.5 -26t27.5 -12h505q19 0 27.5 12.5t-0.5 24.5q-12 18 -127 175.5t-126 171.5q-9 12 -27 12z" />
<glyph unicode="4" d="M674 808q-7 0 -13 -4q-18 -12 -175.5 -127t-171.5 -126q-12 -9 -12 -27t12 -27q327 -239 346 -252q14 -10 26 -0.5t12 27.5v505q0 14 -7 22.5t-17 8.5z" />
<glyph unicode="6" d="M326 808q-10 0 -17 -9.5t-7 -22.5v-505q0 -14 7 -22.5t17 -8.5q7 0 13 4q18 12 175.5 127t171.5 126q12 9 12 27t-12 27q-10 7 -34 25t-63.5 46.5t-80 58t-77.5 56.5t-62 45.5t-29 20.5q-7 5 -14 5z" />
<glyph unicode="8" d="M247 722q-19 0 -27.5 -12.5t0.5 -24.5q12 -18 127 -175.5t126 -171.5q9 -12 27 -12t27 12q10 13 33 45t60.5 83.5t70.5 97t59 81t29 39.5q6 7 5.5 14t-5 12.5t-11.5 8.5t-16 3h-505z" />
<glyph unicode="&#x3c;" d="M647 824l-337 -300l337 -300l44 43l-297 260l294 256zM310 524h-1h1z" />
<glyph unicode="=" d="M676 825v-139h-557v-113h762zM119 475v0l205 -252v139h557v113h-762z" />
<glyph unicode="&#x3e;" d="M353 824l-44 -43l297 -260l-294 -256l41 -41l337 300zM690 524h1h-1z" />
<glyph unicode="?" d="M295 824q-40 0 -67.5 -27.5t-27.5 -67.5v-410q0 -40 27.5 -67.5t67.5 -27.5h410q40 0 67.5 27.5t27.5 67.5v410q0 40 -27.5 67.5t-67.5 27.5h-410zM484 760q71 0 118 -34.5t47 -100.5q0 -41 -20 -69q-12 -17 -46 -43l-22 -18q-18 -14 -24 -33q-4 -12 -4 -37h-86 q2 53 10 73q8 21 42 47l23 18q11 9 18 19q13 17 13 38q0 24 -14 43.5t-51 19.5t-52 -24t-15 -50h-91q4 89 63 127q37 24 91 24zM445 381h94v-90h-94v90z" />
<glyph unicode="@" d="M500 825q-46 0 -88 -17.5t-72 -48t-48 -72.5t-18 -88q0 -35 23.5 -86.5t56.5 -100.5t66 -92t56.5 -70.5t23.5 -26.5q5 5 13 14.5t31.5 38t45 56.5t47.5 66.5t44.5 72t31.5 68.5t13 60q0 62 -30 114t-82.5 82t-113.5 30zM500 723q51 0 87.5 -36t36.5 -88 q0 -33 -16.5 -61.5t-45 -45t-62.5 -16.5t-62.5 16.5t-45 45t-16.5 61.5q0 52 36.5 88t87.5 36z" />
<glyph unicode="A" d="M500 746q-10 0 -16 -6q-99 -115 -146 -170q-4 -5 -2.5 -9t6.5 -7t12 -3h293q11 0 15.5 6t-0.5 12q-46 57 -146 171q-6 6 -16 6zM353 497q-11 0 -15.5 -6t0.5 -12q49 -60 146 -171q4 -4 10 -5.5t12 0t10 5.5q26 31 146 170q6 7 0.5 13t-16.5 6h-293z" />
<glyph unicode="B" d="M657 823l16 -44q-3 -1 -9.5 -3t-25 -10.5t-36 -19.5t-40.5 -30.5t-42 -41.5q-74 -93 -260 -106h-69v-88h74q182 -15 255 -106q19 -23 41.5 -42t41.5 -30t35.5 -19t25.5 -11l9 -3l-16 -44l144 42l-80 128l-17 -44h-3h-8t-12.5 0.5t-16.5 3t-19 6t-20 9.5t-21 14 q-45 36 -74 96h158v-47l121 91l-121 90v-47h-158q28 61 74 97q22 17 47 25.5t39 7.5h14l17 -44l80 128z" />
<glyph unicode="C" d="M153 822v-66h115l70 -340h76h367l66 313h-508l-19 93h-70h-97zM381 668h360l-29 -190h-296zM449 358q-28 0 -47 -19.5t-19 -47t19 -47t47 -19.5q18 0 33.5 9t24 24.5t8.5 33.5q0 27 -19 46.5t-47 19.5zM670.5 358q-27.5 0 -47 -19.5t-19.5 -47t19.5 -47t47 -19.5t47 19.5 t19.5 47t-19.5 47t-47 19.5z" />
<glyph unicode="D" d="M511 722h-27v-97h27v97zM601 522h97v27h-97v-27zM628 666l-69 -69l19 -18l69 68zM359 655l69 -69l19 19l-69 69zM500 823q-124 0 -211.5 -87.5t-87.5 -211.5t87.5 -211.5t211.5 -87.5t211.5 87.5t87.5 211.5t-87.5 211.5t-211.5 87.5zM706 436h-76q-43 0 -73.5 -30.5 t-30.5 -73.5v-37q-14 -2 -26 -2q-14 0 -32 3v36q0 43 -30.5 73.5t-73.5 30.5h-70q-14 38 -14 77q0 60 29.5 111t80 80t110.5 29q91 0 155.5 -64t64.5 -156q0 -40 -14 -77zM302 522h97v27h-97v-27zM461 575l7 -114q1 -5 2 -6q4 -9 11.5 -15.5t17.5 -8.5q12 -3 23 0.5t19.5 12 t10.5 19.5q5 18 -4 33q-3 5 -24.5 24.5t-42.5 36.5z" />
<glyph unicode="E" d="M198 782q-17 0 -30 -12.5t-13 -30.5v-430q0 -18 13 -30.5t30 -12.5h604q17 0 30 12.5t13 30.5v430q0 18 -13 30.5t-30 12.5h-604zM285 696h430l-215 -172zM242 653l258 -215l258 215v-301h-516v301z" />
<glyph unicode="F" d="M589 824v-54q87 -74 90 -77v41v48v42h-45h-45zM501 811q-54 -46 -175 -149t-175 -149h58q48 38 146.5 119.5t146.5 119.5q23 -16 145.5 -115.5t142.5 -119.5h59q-23 20 -98 83.5t-159.5 135t-90.5 75.5zM504 693q-39 -30 -117 -89.5t-116 -89.5v-92.5v-105v-92.5 q31 0 47 11t20 30.5t3 44t0.5 53t8.5 56.5t31 56t64 49q35 17 70.5 22t63 0t53 -14.5t43.5 -19t31 -15.5t20 -2.5t7 19.5q-11 7 -97.5 75.5t-131.5 103.5zM435 469q-9 0 -15 -6t-6 -14v-204q0 -9 6 -15t15 -6h286q8 0 14 6t6 15v204q0 4 -1.5 7.5t-4 6.5t-6.5 4.5t-8 1.5 h-286zM463 439h230l-115 -92zM440 416l138 -115l138 115v-161h-276v161z" />
<glyph unicode="G" d="M485 825q-11 0 -20 -5.5t-14 -14.5t-5 -20v-488h108v488q0 11 -5 20t-13.5 14.5t-19.5 5.5h-31zM629 707q-16 0 -27.5 -11.5t-11.5 -27.5v-371h108v371q0 8 -3 15t-8 12.5t-12.5 8.5t-15.5 3h-30zM303 590q-16 0 -27.5 -11.5t-11.5 -28.5v-253h109v253q0 17 -11.5 28.5 t-27.5 11.5h-31zM193 260v-37h614v37h-614z" />
<glyph unicode="H" d="M500 824q-30 0 -50.5 -21t-20.5 -50.5t20.5 -50.5t50.5 -21t50.5 21t20.5 50.5t-20.5 50.5t-50.5 21zM500 600q-30 0 -50.5 -21t-20.5 -50.5t20.5 -50t50.5 -20.5t50.5 20.5t20.5 50t-20.5 50.5t-50.5 21zM500 367q-30 0 -50.5 -21t-20.5 -50.5t20.5 -50.5t50.5 -21 t50.5 21t20.5 50.5t-20.5 50.5t-50.5 21z" />
<glyph unicode="I" d="M261 823v-545h56v496h259l-48 49h-267zM360 741v-516h379v411l-103 105h-276z" />
<glyph unicode="J" d="M677 223h-354q-15 0 -25.5 10t-10.5 25v307q0 15 10.5 25.5t25.5 10.5h40v88q0 56 40 96t96.5 40t96.5 -40t40 -96v-88h41q6 0 11.5 -2t9.5 -5t7.5 -7.5t5.5 -10t2 -11.5v-307q0 -6 -2 -11t-5.5 -9.5t-7.5 -8t-9.5 -5t-11.5 -1.5zM476 390l-22 -122h101l-24 124 q18 9 29 26t11 37q0 14 -5.5 27t-15 22.5t-22 15t-27.5 5.5q-29 0 -49 -20.5t-20 -49.5q0 -42 37 -62q4 -1 7 -3zM578 689q0 33 -23 56t-56 23q-16 0 -30.5 -6.5t-25 -17t-16.5 -25t-6 -30.5v-88h157v88z" />
<glyph unicode="K" d="M319 824l381 -400l38 31zM407 648q-10 0 -20 -2q-11 -1 -32 -8t-50 -19t-58.5 -31t-54.5 -41.5t-40 -53t-13 -63.5q6 -104 115.5 -158.5t316.5 -46.5q2 0 6 0.5t15 2t20.5 4.5t19 9t14.5 13.5t4 19.5t-10 27q-2 2 -4 5l-16.5 27t-15.5 26t-14 27t-9.5 24t-5 23.5t2.5 20 t9.5 18t19.5 12.5q1 1 2 1l-56 57q-2 -2 -6 -3.5t-15 -4t-21 -2.5t-21 4.5t-18 14.5q-22 32 16 56l2 1l-33 34q-3 1 -7 2t-17.5 2.5t-25.5 1.5zM563 638l125 -115q3 1 7.5 3t14 8.5t15 13t3.5 16.5t-14 20q-21 16 -58.5 29.5t-64.5 18.5zM353 591q22 0 37.5 -10t15.5 -24 t-15.5 -23.5t-37.5 -9.5t-38 9.5t-16 23.5q0 10 7.5 17.5t19.5 12t27 4.5zM232 497q6 0 11.5 -0.5t10 -2t9 -3.5t7.5 -4.5t5.5 -5t4 -5.5t1.5 -6q0 -12 -14.5 -20t-34.5 -8t-34 8t-14 19.5t14 19.5t34 8zM756 444q-16 0 -31 -16q-12 -13 -11.5 -27t9 -27.5t19 -23.5 t19.5 -17l8 -6q-2 10 1 17t9.5 9.5t13 4t11.5 1.5l5 -1q-6 5 -8 11.5t-0.5 13t4 12t4.5 9.5l2 3q-2 4 -7 10.5t-19.5 16.5t-28.5 10zM832 392l-24 -7l9 -37l-28 -4l6 -29l66 -21zM282 391q9 0 16 -4t11 -10.5t4 -14.5q0 -12 -9 -20.5t-21.5 -8.5t-21.5 8.5t-9 20.5t9 20.5 t21 8.5z" />
<glyph unicode="L" d="M499 824q-41 0 -70.5 -29t-29.5 -70t29.5 -70t70.5 -29t70 29t29 70t-29 70t-70 29zM220 705q-37 0 -63 -26t-26 -62.5t26 -63t63 -26.5t63 26.5t26 63t-26 62.5t-63 26zM775 705q-37 0 -63 -26t-26 -62.5t26 -63t63 -26.5t63 26.5t26 62.5q0 25 -12 45.5t-32.5 32 t-44.5 11.5zM547 603l-47 -93l-53 90h-65l21 -369h190l21 372h-67zM264 507l-40 -88l-46 86h-58l25 -281l189 2l-10 279zM824 507l-48 -83l-42 81h-58l-14 -279h183l35 281h-56z" />
<glyph unicode="M" d="M198 824q-30 0 -50 -17t-20 -44.5t20 -44.5t50 -17h604q30 0 50 17t20 44.5t-20 44.5t-50 17h-604zM198 585q-30 0 -50 -16.5t-20 -44.5q0 -19 9.5 -33t25.5 -21t35 -7h604q30 0 50 16.5t20 44.5q0 18 -9.5 32.5t-25.5 21.5t-35 7h-604zM198 347q-30 0 -50 -17t-20 -44 q0 -19 9.5 -33t25.5 -21.5t35 -7.5h604q14 0 27 4.5t22.5 12t15 19.5t5.5 26q0 27 -20 44t-50 17h-604z" />
<glyph unicode="N" d="M560 687q-18 0 -28 -11.5t-11 -30.5q0 -17 10 -28.5t28 -12.5q18 1 28.5 12t11.5 31q0 17 -10 28.5t-29 11.5zM443 686v-80h16v24v18.5v16.5q3 -7 6.5 -14.5t7.5 -13.5l17 -31h19v80h-16v-23v-17.5t1 -16.5q-3 7 -6.5 14t-6.5 14l-17 29h-21zM611 686v-80h16v24v18 q0 10 -1 17h1q3 -7 7 -14l7 -14l17 -31h19v80h-17v-23q0 -9 0.5 -17.5t1.5 -16.5q-3 6 -6.5 13.5t-7.5 14.5l-16 29h-21zM869 685q-12 0 -20.5 -8.5t-8.5 -20.5t8.5 -20.5t20.5 -8.5t20.5 8.5t8.5 20.5t-8.5 20.5t-20.5 8.5zM698 684v-318h128v318h-128zM869 681q10 0 17 -7 t7 -17.5t-7 -17.5t-17 -7t-17.5 7t-7.5 17.5t7.5 17.5t17.5 7zM869 673h-4h-2h-4q1 -6 1 -15t-1 -16h5v13h3q5 0 6.5 -2t4.5 -11h5q-3 9 -4.5 11.5t-4.5 3.5q6 3 6 9q0 7 -11 7zM560 673q10 0 14.5 -8t4.5 -19q0 -12 -5 -19.5t-14 -7.5t-14 7.5t-5 19.5t5 19.5t14 7.5z M868 670q7 0 7 -6q0 -5 -9 -5h-2v10q1 1 4 1zM730 655l39 -19h28v-15h-28l-39 -18v16l29 10v1l-29 10v15zM371 591q-26 0 -35.5 -12.5t-9.5 -46.5v-111q0 -35 9.5 -47.5t34.5 -12.5t35 12.5t10 47.5v111q0 34 -9.5 46.5t-34.5 12.5zM102 588v-224h28v96h8q24 0 35 9.5 t11 31.5v47q0 22 -11 31t-38 9h-33zM208 588v-224h27v104h7q14 0 18.5 -4.5t4.5 -20.5v-79h29v78q0 20 -7 28t-25 10q17 1 24 9t7 26v36q0 20 -10.5 28.5t-35.5 8.5h-39zM448 588v-224h29v104h36v23h-36v73h38v24h-67zM539 588v-224h29v224h-29zM589 588v-24h27v-200h29v200 h27v24h-83zM778 581h4q8 0 12 -6t4 -18t-3 -17t-11 -5h-6v16h6q4 0 5.5 1.5t1.5 5.5t-1.5 5.5t-6.5 1.5h-4q-4 0 -9 -6v-1l-12 -15q-3 -3 -5.5 -4.5t-4.5 -1.5h-5q-7 0 -10.5 5.5t-3.5 17.5q0 11 3 15.5t10 4.5h6v-15h-7q-3 0 -4 -1.5t-1 -4.5q0 -4 1 -5.5t6 -1.5h3q3 0 8 6 l12 15q4 5 6.5 6.5t5.5 1.5zM370.5 569q8.5 0 12 -6.5t3.5 -25.5v-122q0 -19 -3.5 -25t-12 -6t-12 6t-3.5 25v122q0 19 3.5 25.5t12 6.5zM130 566h5q12 0 16 -5.5t4 -21.5v-30q0 -16 -4.5 -21t-15.5 -5h-5v83zM235 566h6q14 0 18.5 -5t4.5 -21v-24q0 -15 -4.5 -20.5 t-18.5 -5.5h-6v76zM797 511v-15l-17 -4v-20l17 -4v-15l-67 19v21zM773 490l-36 -7v-1l36 -8v16zM789 429h8v-37h-67v36h7v-20h21v19h7v-19h24v21z" />
<glyph unicode="O" d="M738 824q-7 0 -13 -5q-7 -6 -7.5 -14.5t4.5 -15.5q137 -162 87 -355q-11 -45 -33 -88.5t-33 -59.5t-19 -25q-7 -6 -7 -16q0 -8 6.5 -14.5t15.5 -6.5q5 0 9 2t10.5 9.5t17.5 24.5q24 35 43 75q49 106 46 213q-5 144 -110 268q-6 8 -17 8zM513 811q-9 0 -17 -4 q-14 -8 -170 -153h-173q-5 0 -9 -2.5t-6.5 -6.5t-2.5 -9v-219q0 -8 5 -13t13 -5h172q165 -152 171 -155q18 -10 33 -0.5t15 27.5v509q0 14 -9.5 22.5t-21.5 8.5zM670 745q-8 0 -14 -5q-7 -6 -7.5 -14.5t5.5 -15.5q43 -51 58.5 -107.5t10.5 -98.5t-22 -83t-27.5 -56.5 t-18.5 -25.5q-6 -6 -6 -15t6 -15t15 -6q8 0 14 5.5t18 22.5q17 26 31 55q11 25 19 51t12 63.5t-0.5 74t-24 80t-53.5 83.5q-6 7 -16 7zM600 673q-8 0 -13 -5q-5 -4 -7 -9.5t-1 -11t5 -9.5q27 -32 37 -68t7 -62t-13.5 -52t-17.5 -36t-12 -16q-6 -6 -6 -15q0 -6 3 -11 t7.5 -7.5t10.5 -2.5q9 0 14 4.5t13 16.5q12 17 21 37q10 22 16 45.5t7 56t-12.5 68.5t-41.5 69q-8 8 -17 8zM666 345h-1h1zM663 344h-1h1zM660 343l-1 -0.5l-1 -0.5q1 1 2 1z" />
<glyph unicode="P" d="M347 824q-47 0 -75 -39h458q-27 39 -74 39h-309zM261 765v0h-60q-22 0 -37.5 -16t-15.5 -38v-156q0 -15 7 -27.5t19.5 -19.5t26.5 -7h67v41q0 22 15.5 38t38.5 16h317q22 0 38 -16t16 -38v-41h1l-1 -65h-102q-27 -2 -46 -21q-5 -5 -9.5 -12t-6.5 -12.5t-3.5 -10.5 t-1.5 -8l-1 -3v-107h-183q-13 0 -21 6t-10 13l-1 6v132q-4 15 -20 15q-7 0 -11.5 -4t-5.5 -8l-1 -4v-131q0 -18 6.5 -31t16 -19t19 -9t15.5 -4h7h196q12 0 22 3t14 6l4 3q110 112 138 141q27 29 22 30v94h69q14 0 26.5 7t19.5 19.5t7 27.5v156q0 22 -15.5 38t-37.5 16h-58 h-480zM354 520q-9 0 -9 -10t9 -10h134q10 0 10 10t-10 10h-134zM356 468q-10 0 -10 -10t10 -10h131q10 0 10 10t-10 10h-131zM356 415q-10 0 -10 -9.5t10 -9.5h132q10 0 10 9.5t-10 9.5h-132zM592 396h80l-108 -110v81q0 12 7 19t14 9z" />
<glyph unicode="S" d="M474 824q-4 0 -9 -2.5t-8.5 -6t-4.5 -8.5l-14 -43q-6 -17 -20 -22q-7 -3 -21 -5t-22 1l-42 20q-15 7 -28 -5l-35 -35q-12 -12 -4 -28l21 -40q8 -17 1 -29q-4 -7 -13 -19.5t-15 -14.5l-43 -16q-7 -2 -12 -9t-5 -14v-50q0 -7 5 -13.5t12 -8.5l43 -14q17 -6 22 -20 q3 -7 5 -21t-1 -22l-20 -42q-7 -16 5 -28l35 -35q12 -12 28 -4l40 20q17 9 29 2q7 -4 19.5 -13t14.5 -15l16 -43q2 -7 9 -12t14 -5h50q7 0 13.5 5t8.5 12l14 43q6 17 20 22q33 9 43 4l42 -20q16 -7 28 5l35 35q12 12 4 28l-21 40q-8 16 -1 29q4 7 13 19.5t15 14.5l43 16 q7 2 12 9t5 14v50q0 7 -5 13.5t-12 8.5l-43 14q-17 6 -22 20q-3 7 -5 21t1 22l20 42q7 16 -5 28l-35 35q-12 13 -28 5l-40 -21q-16 -9 -29 -2q-4 2 -11.5 6.5t-14.5 11t-8 10.5l-16 43q-2 7 -9 12t-14 5h-50zM500 654q54 0 92 -38.5t38 -92.5t-38 -92t-92 -38t-92.5 38 t-38.5 92t38.5 92.5t92.5 38.5z" />
<glyph unicode="T" d="M614 824q-78 0 -133 -55q-41 -42 -51.5 -100t13.5 -108q-12 -12 -110 -106.5t-112 -108.5t-18.5 -32.5t0 -36.5t18.5 -32q21 -21 50.5 -21t50.5 21l194 194q-5 4 -12 11.5t-22 31t-20 46.5q9 -12 19 -23q36 -36 84 -48.5t96 0t84 48.5q40 40 51 94t-8 104q-4 10 -35 -18 t-60 -62l-30 -33l-86 21l-18 75q9 7 24 19.5t45.5 38t46.5 44.5t8 22q-33 14 -69 14zM271 329q14 0 24 -10t10 -24t-10 -23.5t-24 -9.5t-24 9.5t-10 23.5t10 24t24 10z" />
<glyph unicode="U" d="M500 822q-62 0 -105.5 -43.5t-43.5 -105.5q0 -41 20 -75t54.5 -54t74.5 -20q62 0 105.5 43.5t43.5 105.5t-43.5 105.5t-105.5 43.5zM500 468q-108 0 -184.5 -61.5t-76.5 -143.5v-37h522v37q0 54 -34.5 101t-95 75.5t-131.5 28.5z" />
<glyph unicode="`" d="M500 824q-97 0 -179 -34.5t-129.5 -94t-47.5 -128.5q0 -53 28 -100.5t76 -82t114 -54.5t138 -20q39 0 68 4q16 3 109.5 -46t108.5 -43q12 5 -4 39.5t-33.5 70.5t-7.5 43q36 23 61.5 52.5t39.5 64.5t14 72q0 69 -47.5 128.5t-129.5 94t-179 34.5zM322 616q20 0 34.5 -14.5 t14.5 -35t-14.5 -35t-34.5 -14.5t-34.5 14.5t-14.5 35t14.5 35t34.5 14.5zM500.5 616q20.5 0 35 -14.5t14.5 -35t-14.5 -35t-35 -14.5t-35 14.5t-14.5 35t14.5 35t35 14.5zM678 616q20 0 34.5 -14.5t14.5 -35.5q0 -13 -6.5 -24.5t-18 -18t-24.5 -6.5q-20 0 -34.5 14.5 t-14.5 35t14.5 35t34.5 14.5z" />
<glyph unicode="a" d="M500 825q-124 0 -212 -88t-88 -212t88 -211.5t212 -87.5t212 87.5t88 211.5t-88 212t-212 88zM500 778q105 0 178.5 -74t73.5 -178.5t-74 -178.5t-178.5 -74t-178 74t-73.5 178.5t73.5 178.5t178.5 74zM472 701v-143h-141v-54h141v-143h53v143h143v54h-143v143h-53z" />
<glyph unicode="b" d="M490 823q-123 0 -211 -87.5t-88 -211.5q0 -23 5 -49q57 -7 112.5 -3.5t100.5 8.5t88 16.5t76 22.5t63.5 26t51 26.5t39.5 25t27.5 20.5t15.5 13q-33 86 -109 139.5t-171 53.5zM851 672q-20 0 -44.5 -2t-25.5 -2q3 0 7 -1t15.5 -4t21.5 -7.5t20.5 -11.5t16 -15.5 t5.5 -20.5t-8 -25.5t-28.5 -31.5t-52.5 -38q-72 -46 -221 -106.5t-249 -92.5q19 5 52.5 13.5t123.5 35t165.5 54.5t153 68.5t111.5 78.5q24 27 31.5 47t1.5 31.5t-22 18.5t-34 9t-40 2zM808 600q-102 -57 -265.5 -131t-255.5 -98q-162 -42 -159 37q2 37 31 80 q-1 -1 -16.5 -15t-30 -28.5t-32 -35t-24 -38t-4.5 -33.5t24.5 -26t64.5 -11q161 -6 542 221zM769 416q-47 -37 -108 -64.5t-112 -40t-106 -19.5t-82 -8t-49 0q80 -59 178 -59q95 0 171 53t108 138z" />
<glyph unicode="c" d="M500 824q-124 0 -212 -88t-88 -212t88 -212t212 -88t212 88t88 212t-88 212t-212 88zM500 777q105 0 179 -74q36 -37 55 -84t19 -95t-19 -95t-55 -84q-74 -74 -179 -74t-179 74t-74 179t74 179q75 73 179 74zM393 666l-38 -37l102 -102l-100 -100l38 -37l100 99l102 -102 l37 38l-101 102l101 101l-38 38l-101 -101z" />
<glyph unicode="d" d="M500 824q-124 0 -212 -88t-88 -212t88 -212t212 -88t212 88t88 212t-88 212t-212 88zM500.5 776q104.5 0 178 -74t73.5 -178q0 -69 -33.5 -127t-91.5 -91.5t-127 -33.5q-104 0 -178 74t-74 178t74 178t178.5 74zM331 557v-54h337v54h-337z" />
<glyph unicode="e" d="M711 821q-10 0 -20.5 -1.5t-18.5 -3.5t-15 -4.5t-10 -3.5l-4 -2l-61 -61l147 -146l61 60l1 3.5t2 9t2.5 13.5t2 17.5t1 19.5t-1 20.5t-4.5 20t-8 19t-13 17.5q-22 22 -61 22zM517 671l-257 -250l-59 -194l203 50l256 250z" />
<glyph unicode="f" d="M466 823q-14 0 -26 -2h-1h-1q-35 -14 -64.5 -45t-47.5 -68q-39 -75 -39 -186q0 -158 87 -250q39 -41 66 -46q15 -3 33 -2v56v-1v104v19q0 18 -0.5 32t-0.5 32.5t1 31.5v10h1v1.5v0.5q9 0 51.5 0.5t49.5 -1.5v-1h38q1 2 3 2q8 0 49.5 0.5t48.5 -1.5v-1h39v13 q1 43 -12 84.5t-32.5 73t-46.5 57.5q-39 40 -91 62q-57 25 -105 25zM360 807q-89 -32 -141 -100q-61 -78 -63 -179q-2 -100 60 -182q53 -71 140 -103q1 0 2 -0.5t1 0.5q-1 0 -1.5 0.5t-1.5 0.5q-115 126 -111 286q2 86 32.5 155t80.5 117q4 4 2 5zM432 775q2 -9 2 -59v-61 h-90q28 76 88 120zM473 772q57 -40 82 -117h-82v117zM534 771q98 -35 143 -116h-81q-19 66 -63 115q-1 1 1 1zM339 635h95v-106h-110q2 66 15 106zM474 635h88q13 -49 13 -106h-102q0 20 -0.5 36t-0.5 36t2 34zM602 635h87q24 -52 25 -106h-101q1 38 -11 106zM327 510h107 v-108h-92q-13 41 -18 104q0 4 3 4zM539 474q-6 0 -10.5 -2.5t-7.5 -7t-3 -10.5v-204q0 -8 6 -14t15 -6h285q8 0 14 6t6 14v204q0 8 -6 14t-14 6h-285zM567 444h229l-115 -92zM544 421l137 -115l138 115v-161h-275v161zM379 384q6 0 28 -0.5t27 -0.5v-109q-1 -5 -7 1 q-18 12 -41 43q-24 31 -38 64q12 2 31 2z" />
<glyph unicode="g" d="M360 826v-161h-241v-282h241v-161h39v42h41v40h40v40h40v40h40v38h40v41h41v41h40v41h-40v39h-41v42h-40v38h-40v40h-40v40h-40v41h-41v41h-39zM560 826v-120h38v-41h41v-40h41v-40h41v-41h40v-39l-40 -1v-42h-41v-40h-41v-40h-41v-41h-38v-117h40v38h40v41h41v40h40v40 h40v41h39v39h41v41h40v41h-40v39h-41v42h-39v38h-40v40h-40v40h-41v41h-40v41h-40z" />
<glyph unicode="h" d="M419 823q-48 -1 -106 -26q-52 -22 -91 -61q-41 -41 -66.5 -97t-24.5 -119q0 -96 52 -169t133 -106q29 -12 59 -17q11 -2 17 -3v68q-37 33 -59 89h59v19h-66l-6 24h-10v62q-1 14 -1 21q6 0 19 1l19 19h-38q0 57 13 106h89q1 -15 1 -40l39 38v2h1l21 20h-22q0 11 -0.5 61 t1.5 60q41 -30 67 -75l28 29q-43 68 -100 91h-1h-2q-11 3 -25 3zM525 807q-2 -1 2 -6q28 -26 50 -61h58q-46 43 -110 67zM412 772v-118h-83q25 77 83 118zM350 771q2 -1 2 -2q-45 -49 -63 -115h-82q45 82 143 117zM666 702v-42q69 -59 70 -61v54v49h-35h-35zM597 692 q-35 -30 -86 -73.5t-101.5 -86.5t-86.5 -73h46q18 14 38 30.5t38 31t38.5 31.5t38.5 32t38 31.5t38 30.5q18 -13 113.5 -90.5t111.5 -93.5h46q-18 16 -77 65.5t-124 104.5t-71 60zM195 634h87q-12 -68 -11 -106h-101q1 54 25 106zM599 600q-30 -24 -91 -70.5t-91 -70.5v-72 v-82v-72q28 0 41 12t13 31t1 44t3.5 50.5t22 52t55.5 44.5q28 14 55.5 18t49 0t41.5 -11.5t34 -15t24.5 -12t15.5 -2t5 14.5q-10 8 -77 60.5t-102 80.5zM206 509h31.5h31.5q2 -1 2 -4q1 -44 15 -104h-87q-25 50 -29 107q14 1 36 1zM560 418q-6 0 -10 -4t-4 -10v-145 q0 -4 2 -7.5t5 -5.5t7 -2h203q6 0 10 4.5t4 10.5v145q0 6 -4 10t-10 4h-203zM580 396h163l-82 -65zM212 382h81v-4q19 -53 56 -97q1 0 4 -3.5t3.5 -4t-0.5 -2.5q-90 28 -141 102q-2 3 -3 5t0 4zM564 380l97 -81l98 81v-114h-195v114z" />
<glyph unicode="i" d="M353.5 823q-17.5 0 -30.5 -12.5t-13 -30.5v-47q0 -12 6 -22t16 -15.5t22 -5.5q17 0 30 12.5t13 30.5v47q0 18 -13 30.5t-30.5 12.5zM650 823q-19 0 -32 -13.5t-13 -31.5v-40q0 -19 13 -32t32 -13q13 0 23.5 6t16.5 16.5t6 22.5v40q0 18 -13.5 31.5t-32.5 13.5zM254 756 q-22 0 -37.5 -15.5t-15.5 -37.5v-426q0 -22 15.5 -37.5t37.5 -15.5h492q22 0 37.5 15.5t15.5 37.5v426q0 22 -15.5 37.5t-37.5 15.5h-30v-30q0 -14 -7.5 -26.5t-19.5 -19.5t-27 -7h-22q-22 0 -37.5 15.5t-15.5 37.5v30h-172q1 -6 1 -12v-21q0 -14 -7 -26.5t-19 -19.5t-27 -7 h-24q-22 0 -37.5 15.5t-15.5 37.5v21q0 6 2 12h-34zM246 609h512v-343h-512v343zM418 573v-73h73v73h-73zM515 573v-73h72v73h-72zM621 573v-73h73v73h-73zM322 468v-73h73v73h-73zM418 468v-73h73v73h-73zM515 468v-73h72v73h-72zM621 468v-73h73v73h-73zM322 371v-72h73 v72h-73zM418 371v-72h73v72h-73z" />
<glyph unicode="j" d="M658 826v-170h-325v165h-128v-599h590v522l-83 82h-54zM559 803v-124h58v124h-58zM268 524h464v-250h-464v250zM311 479v-22h376v22h-376zM312 412v-22h376v22h-376zM311 343v-22h376v22h-376z" />
<glyph unicode="k" d="M366 770l-89 -23l-88 -24l111 1l18 -130l24 88zM682 454l-24 -88l-24 -88l89 23l88 24l-111 19zM608 570h-25v53q0 14 -4 26.5t-12 22.5t-18 17.5t-22.5 11.5t-25.5 4q-22 0 -41 -11t-30 -30t-11 -41v-53h-24q-9 0 -15.5 -6t-6.5 -15v-185q0 -9 6.5 -15t15.5 -6h213 q6 0 10.5 3t7.5 7.5t3 10.5v185q0 9 -6 15t-15 6zM534 370h-61l14 74q-12 4 -19.5 14.5t-7.5 24.5q0 8 3.5 16t9 13.5t13.5 9t16 3.5q18 0 30 -12.5t12 -29.5q0 -27 -24 -38zM548 570h-94v53q0 13 6 24t17 17t24 6q5 0 9.5 -1t8.5 -2.5t8 -4t7 -6l6 -7t4.5 -8t2.5 -9t1 -9.5 v-53zM501 825q-81 0 -150.5 -40.5t-109.5 -109.5t-40 -151t40 -151t109.5 -109.5t150.5 -40.5q125 0 213 88t88 213t-88 213t-213 88zM501 271q-105 0 -179 74t-74 179t74 179t179 74q69 0 127.5 -34t92 -92t33.5 -127q0 -105 -74 -179t-179 -74z" />
<glyph unicode="l" d="M610 822q-76 0 -130 -53.5t-54 -129.5q0 -14 5 -41l-1 1q1 -7 -7 -22t-14 -21l-19 -18q-5 -6 -5 -18.5t5 -18.5q1 -2 3 -5.5t5 -13t3.5 -18.5t-1.5 -19t-9.5 -17t-15.5 -8.5t-15.5 2t-14.5 8t-14.5 9.5t-13.5 7q-11 2 -27 -8t-10 -29q2 -4 9 -14.5t11.5 -19t6 -20.5 t-7.5 -19q-11 -11 -29.5 -11t-31.5 5l-13 6q-18 9 -18 0v-74q0 -7 14.5 -21.5t22.5 -14.5h55q4 0 16.5 7.5t23.5 16t15 12.5l183 184q4 4 8 7t7.5 5t7 3t6 2t4.5 1h3h1q6 -1 11.5 -1t13 0.5t12.5 0.5q76 0 129 49.5t53 125.5t-53.5 129.5t-129.5 53.5zM609.5 712 q30.5 0 52 -21.5t21.5 -51.5q0 -12 -3.5 -23.5t-10.5 -20.5t-16 -15.5t-20 -10.5t-23 -4q-20 0 -37 10t-27 27t-10 37q0 30 21.5 51.5t52 21.5z" />
<glyph unicode="m" d="M253 823q-22 0 -38 -16t-16 -38v-381q0 -22 16 -38t38 -16h190q2 -17 2 -27q0 -24 -15.5 -38t-30.5 -15l-15 -2v-27h229v27q-1 0 -3.5 0.5t-8.5 1.5t-11.5 2.5t-12.5 6t-11.5 10t-8 14.5t-3.5 20q0 10 2 27h190h1q15 0 27.5 7t19.5 19.5t7 27.5v381q0 14 -7 26.5 t-19.5 20t-27.5 7.5h-494zM273 750h452v-305h-452v305z" />
<glyph unicode="n" d="M495 824l-216 -184v-383h32v-33h30v32h31v32h34v-32h31v-31h30v62h65v-63h29v31h34v32h31v-32h31v-31h31v31l33 1v568h-226zM501 792h30v-191h-190v32h160v159z" />
<glyph unicode="o" d="M749 745q-15 0 -29 -6q-52 -22 -135 -90t-177 -184q-40 35 -162 74q-11 2 -17.5 -9.5t0.5 -17.5q8 -8 41 -39t48.5 -47t46 -50t59.5 -73q77 129 190 260t148 155q16 11 10.5 19t-23.5 8zM424 303z" />
<glyph unicode="p" d="M248 752q-32 0 -54 -22.5t-22 -53.5v-304q0 -31 22 -53.5t54 -22.5h504q32 0 54 22.5t22 53.5v304q0 31 -22 53.5t-54 22.5h-504zM250 724h500q14 0 25.5 -6.5t18.5 -18.5t7 -25v-302q0 -21 -15 -36t-36 -15h-500q-21 0 -35.5 15t-14.5 36v302q0 21 14.5 35.5t35.5 14.5z M638.5 660q-23.5 0 -40.5 -17t-17 -40.5t17 -40.5t40.5 -17t40.5 17t17 40.5t-17 40.5t-40.5 17zM273 627v-25h227v25h-227zM273 573v-25h227v25h-227zM637 528q-37 0 -65.5 -37.5t-32.5 -93.5h197q-3 37 -17 67t-35.5 47t-46.5 17zM273 524v-25h227v25h-227zM273 472v-25 h227v25h-227zM273 423v-25h227v25h-227z" />
<glyph unicode="q" d="M501 824l-261 -149v-300l259 -151l261 149v300zM500 803l243 -142l-243 -138l-240 146zM490 514q7 -4 10 -7l11 7v-263q-5 -4 -11 -8l-10 8v263z" />
<glyph unicode="r" d="M500 823q-124 0 -211.5 -87.5t-87.5 -211.5q0 -7 23.5 -7t23.5 7q0 104 74 178t178 74t178 -74t74 -178t-74 -178t-178 -74q-66 0 -122.5 32t-90.5 86l76 -1l1 47l-145 2v-5h-7l-2 -145l47 -1v62q42 -58 105.5 -91t137.5 -33q124 0 211.5 87.5t87.5 211.5t-87.5 211.5 t-211.5 87.5zM491 698v-30q-18 0 -33.5 -5t-28 -14.5t-19.5 -23.5t-7 -33q0 -21 7.5 -35t20 -23.5t28.5 -15.5q15 -6 32 -11v-93q-27 1 -38.5 15.5t-11.5 40.5h-44q0 -22 6.5 -38.5t19 -28t30 -17.5t38.5 -7v-30h29v30q5 0 23 7q17 5 29 15.5t19.5 26.5t7.5 38q0 21 -8 35 t-20 24q-13 10 -30 16q-5 2 -10 5.5t-11 5.5l-2 81q11 0 16 -6q2 -3 3 -4q10 -11 11 -30h44q0 19 -7 33t-18 23.5t-27 13.5q-15 5 -20 5v30h-29zM491 633v-77q-9 2 -16.5 5t-13.5 7.5t-10 11t-4 15.5q0 21 11.5 29.5t32.5 8.5zM520 504q3 -1 2.5 -2.5t2.5 -3.5q8 -3 15 -8 t11 -12t4 -18q0 -23 -14 -34l-5.5 -5.5t-6.5 -5t-9 -1.5v90z" />
<glyph unicode="s" d="M431 825q-96 0 -164 -68t-68 -164t68 -164t164 -68q71 0 129 39q1 0 1.5 -1t0.5 -2l164 -166q8 -8 20.5 -8t20.5 8l27 30q8 8 7 19.5t-9 19.5l-165 166h-1q37 58 37 127q0 96 -68 164t-164 68zM430.5 772q48.5 0 89.5 -23.5t65 -65t24 -89.5q0 -74 -52.5 -126.5 t-126.5 -52.5t-126 52.5t-52 126.5q0 48 24 89.5t65 65t89.5 23.5z" />
<glyph unicode="t" d="M500 824q-124 0 -212 -88t-88 -212t88 -212t212 -88t212 88t88 212t-88 212t-212 88zM500 776q104 0 178 -74t74 -178t-74 -178t-178 -74t-178 74t-74 178t74 178t178 74zM468 697v-170l-100 -120l43 -33l111 134v189h-54z" />
<glyph unicode="u" d="M479 824q-13 0 -22 -9t-9 -22v-195q0 -13 9 -22t22 -9q9 0 16 4t11 11.5t4 15.5v195q0 13 -9 22t-22 9zM517 798v-182q1 -1 3.5 -2.5t9 -7.5t11 -13t8.5 -19.5t4 -27.5q0 -27 -19 -49.5t-54 -22.5q-24 0 -42 13t-26 30t-8 34q0 21 10.5 38t24.5 26v178q-6 -1 -17 -4.5 t-40.5 -20.5t-52.5 -41q-55 -56 -55 -135q0 -110 74 -208q1 0 3 1t10.5 6t19 13.5t29 25.5t39.5 39q-2 -2 -5 -7t-13 -18t-20.5 -25t-27 -26t-32.5 -24q-9 -65 -26 -102q3 -2 10 -5.5t28.5 -12t44 -14t56.5 -9t67 -1.5q6 69 21 93q3 5 7 7t6 2h3l20 -3q7 -2 19.5 -4.5t36 -1 t31.5 15.5q1 0 3 2.5t2.5 14t-5.5 28.5q-5 14 10 20q7 3 8.5 6t0 6t-7.5 8q10 7 11 11q0 2 -5 8t-4 10q0 4 4.5 7.5t8.5 5.5l4 1q2 1 4 1.5t7 4t7.5 7t2 10.5t-5.5 14q-6 9 -12.5 17.5t-11 13.5t-8.5 11t-6 11q-10 26 -3 56q1 38 -5 48q-22 36 -34 49l-12 11q5 -3 12 -11 l26 -22l10 15q2 15 -4 23l-2 2q-46 61 -153 75z" />
<glyph unicode="v" d="M392 824q-33 0 -44 -28q-4 -17 -3.5 -28t7.5 -25.5t13.5 -23t15.5 -19.5t12 -17q13 -13 29 -21h-192v-105h223v97h3q3 -3 14 -2t12 0v-97h39v99h3q2 -2 5.5 -2.5t10 0.5t7.5 1v-96h223v105h-195q10 5 18.5 10t12.5 8l4 3q19 13 34.5 40t14 57t-29.5 42q-21 2 -37 -1 t-30 -11.5t-22 -15.5t-21 -20.5t-19 -19.5q-6 28 -51 53q-31 16 -57 17zM388 791q45 -4 73 -34t21 -71q-18 -4 -40.5 6.5t-37.5 27.5t-22 36.5t6 34.5zM608 787q9 1 18 -1q1 -43 -31 -74t-74 -23q-2 38 24 68t63 30zM264 528v-303h189v303h-189zM482 528v-304h39v304h-39z M547 528v-303h190v303h-190z" />
<glyph unicode="w" d="M393 824q-54 0 -88.5 -46.5t-19.5 -125.5q29 -30 24 -128q6 -12 18.5 -22t25.5 -20.5t19 -21.5q-10 -17 -9.5 -44.5t-2 -56t-20.5 -50.5q-16 36 -24 59.5t-14 64t-1 83.5q-25 -9 -61.5 -20t-70.5 -22t-60 -22q-33 -49 -48 -167q135 -61 331.5 -61t330.5 61 q-15 118 -48 167q-29 14 -95.5 33t-95.5 31q3 -77 -8.5 -129.5t-47.5 -77.5q-5 30 -4.5 61t-2.5 50.5t-17 39.5q8 7 24 19t28 22.5t20 22.5q-6 33 0 72t24 64q6 39 -0.5 71.5t-23 52t-38 30t-45.5 10.5zM714 822q-20 0 -35 -10.5t-23.5 -25.5t-15.5 -39.5t-10.5 -45 t-8.5 -50.5t-9 -47q32 -2 50 -24.5t22.5 -50t14 -60.5t24.5 -49q8 17 12.5 43.5t8.5 48.5t11 43.5t23 34.5t41 14q-8 23 -14 62.5t-9.5 68t-17.5 53.5t-39 31q-13 3 -25 3zM636 556q-10 -12 -53 -17.5t-51 -22.5q20 0 50 -12.5t54 -11.5q-4 10 -2 20t6 17.5t3.5 15 t-7.5 11.5zM787 548q2 -10 6 -26.5t7 -31.5t3 -30q-9 -1 -18.5 5.5t-21.5 2.5q-2 -16 -7.5 -33.5t-10.5 -31.5t-9 -29.5t-3.5 -34t6.5 -38.5q95 4 200 56q-4 44 -6 63.5t-8.5 51.5t-17.5 52q-9 2 -22.5 6t-23.5 6.5l-22 5.5t-25 4.5t-27 1.5z" />
<glyph unicode="x" d="M345 789q-22 0 -46 -7q-28 -9 -47.5 -23t-27 -28t-11.5 -27t-3 -21l1 -8q-1 -1 -7.5 0t-17.5 -1t-24.5 -4.5t-28 -10.5t-26.5 -18.5t-21.5 -29t-13.5 -42.5q-5 -37 4 -66t23.5 -43t32.5 -23t27.5 -11t12.5 -2q0 4 1 12t5.5 30t10.5 41t17.5 39t25.5 31q23 17 55 25t52 7 l20 -1q1 5 2 13t7 29t13.5 37.5t22 33t31.5 20.5q-1 2 -3 5.5t-10 11.5t-17.5 14.5t-25.5 11.5t-34 5zM555 745h-6q-42 -2 -74 -18.5t-49 -39.5t-28 -45.5t-14 -37.5l-3 -16q-4 0 -10 0.5t-24.5 -0.5t-35.5 -5.5t-37.5 -16.5t-35.5 -30t-25 -49.5t-10 -72.5q0 -25 5.5 -46.5 t15 -36.5t22 -27t26 -19t27 -12t26 -7.5t22 -3.5t15 -1h5.5h178q-1 3 0 17.5t1 35t5 47.5t11 55.5t19 59.5t29.5 58.5t42.5 52.5t57 43q-1 4 -2.5 12t-11.5 28t-25 35t-45.5 27.5t-70.5 12.5zM776 596q-13 0 -26 -2.5t-23 -5.5t-18 -6.5t-12 -5.5l-4 -2q-2 -1 -5.5 -3.5 t-14.5 -13t-22 -24.5t-26 -39.5t-28 -56t-27 -77t-24 -99.5h254q4 1 10.5 3t24 11t32.5 20t31 30t24 41t7 54t-16 67q-44 109 -137 109zM546 261h-1l1 -2v0.5v1.5z" />
<glyph unicode="y" d="M175 789q-11 -47 -39.5 -151.5t-41.5 -162.5q7 -1 15.5 -3.5t16.5 -5t16 -3.5q7 29 16 62.5t17.5 64.5t16.5 61t17 64t17 62q-10 1 -26 6t-25 6zM817 789q-15 -6 -45 -12q7 -27 37.5 -139.5t46.5 -174.5q9 1 25 6t25 6q-10 32 -39 145t-50 169zM522 770q-12 0 -24.5 -3 t-18.5 -5t-21 -9.5l-19 -9.5q-3 -1 -12.5 -5t-14.5 -6.5t-12.5 -6t-12.5 -7.5t-8 -8q-13 -17 -20.5 -63t-17.5 -64q26 -26 52 -19t46 32.5t24 53.5q9 4 18 5.5t16 1.5t16 -3.5t14 -5.5t14 -9t12 -9t12 -11l10 -10q19 -16 39.5 -37.5t40.5 -42.5t38 -37q3 -3 21 -16 t26.5 -23.5t7.5 -22.5q-4 -53 -74 2q-14 11 -34 27t-34.5 28t-32 25.5t-31.5 22.5q4 -14 10 -26t10.5 -19.5t15.5 -17.5t15.5 -14t19.5 -15.5t20 -15.5q2 -2 15 -11t21 -15t15 -15t6.5 -16t-7 -13t-17.5 -6q-9 -1 -19.5 5.5t-26 20t-21.5 17.5q-6 5 -16 13t-16 12.5 t-15.5 10t-17.5 7.5t-19 1.5t-23 -4.5q13 -10 39 -28t35 -24q3 -3 11.5 -9t13 -9t12 -9t12 -10.5t9.5 -10.5t9 -12q-13 -11 -25.5 -11.5t-29 9.5t-29.5 21t-28 23t-25 15q-4 -2 -19.5 -2.5t-20.5 -4.5q9 -7 42.5 -31t50.5 -38q-26 -13 -53.5 1.5t-39.5 38.5q-9 7 -24 5 q0 23 -16 34t-39 5q-11 46 -46 34q-29 -10 -44 -41q-17 -42 20 -61q7 -1 18.5 1t12.5 2q0 -25 23.5 -36t43.5 2q3 -19 19.5 -25.5t35 -2t29.5 15.5q21 -13 48.5 -10t40.5 20q26 -14 54.5 -3t31.5 36q50 3 60 53q35 1 49 35.5t-6 62.5q25 19 34 29q-8 24 -70 252 q-18 -4 -39 -4.5t-41 3t-38 7t-39 7.5t-37 6h-12h-3zM269 758q-5 -5 -10 -29q100 -8 149 29h-139zM199 504q0 -3 -3 -12.5t-4 -16.5q4 -6 16 -13t15 -11q-13 -21 0.5 -39.5t38.5 -20.5q1 13 10 31t11 24q-18 16 -84 58z" />
<glyph unicode="z" d="M492 824l-16 -48q-51 -4 -92.5 -21t-67 -42t-45 -54t-28 -57.5t-14 -51.5t-6.5 -38v-14q73 67 120 0q31 33 63 33t62 -33v-177q-1 -4 -1.5 -10t-4.5 -17.5t-10 -16.5t-18.5 0.5t-29.5 27.5q-19 5 -23 -20q-4 -30 15 -45q22 -14 46.5 -15.5t43.5 9.5t30 35t8 56v173 q34 33 61.5 33t63.5 -33q59 64 128 0q0 5 -0.5 15t-5 38.5t-13.5 54t-28.5 57.5t-46 56t-70 41t-96.5 19z" />
<glyph unicode="~" d="M460 824q-1 -11 -5 -16t-7 -4h-3h-30q-12 0 -15 -4.5t0 -8.5l3 -4l49 -60q0 -15 5.5 -24t10.5 -10l5 -1h25h26q2 0 5.5 1t9.5 10t6 24l49 60q15 17 -12 17h-30q0 1 -3 0t-7 4t-5 16h-39h-1h-37zM449 672q-8 -4 -20.5 -12.5t-44 -40t-53 -68t-34 -98t-0.5 -130.5l3 -3 t6 -7.5t5.5 -11t-1 -13t-11.5 -13.5q-26 -18 -22 -39q4 -18 29 -10q9 4 22 10.5t20 9t22 -0.5t35 -14l94 -7h1h1l94 7q20 11 35 14t22 0.5t20 -9t22 -10.5q26 -8 29 11q3 21 -22 38q-14 11 -13.5 22t8.5 19l8 7q11 69 -0.5 130t-35.5 99.5t-51.5 67t-45.5 40.5t-20 12h-50 h-2h-50zM487 604h32v-21q64 -4 62 -81h-68q1 28 -5 38q-7 2 -12 1q-5 -4 -7 -13t0.5 -17.5t7.5 -12.5q4 -4 38 -24t45 -38q4 -7 8 -36q6 -39 -14 -63.5t-55 -28.5v-26h-32v27q-69 4 -68 97h69q0 -2 -0.5 -8.5t-0.5 -11v-11t1 -11t2.5 -8t3.5 -5.5q3 -1 6 -1t6 1t4 4 q5 7 4 25.5t-6 25.5q-8 12 -35 27t-36 25q-19 25 -19.5 53.5t18.5 49t51 22.5v21z" />
<glyph unicode="&#x25fc;" horiz-adv-x="790" d="M0 790h790v-790h-790v790z" />
<glyph unicode="&#xe800;" d="M92 824v-600h816v600h-816zM140 776h72v-48h-72v48zM260 776h72v-48h-72v48zM404 776h72v-48h-72v48zM524 776h72v-48h-72v48zM668 776h72v-48h-72v48zM788 776h72v-48h-72v48zM140 680h192v-312h-192v312zM404 680h192v-312h-192v312zM668 680h192v-312h-192v312z M140 320h72v-48h-72v48zM260 320h72v-48h-72v48zM404 320h72v-48h-72v48zM524 320h72v-48h-72v48zM668 320h72v-48h-72v48zM788 320h72v-48h-72v48z" />
<glyph unicode="&#xe801;" d="M92 824v-600h816v600h-816zM164 752h672v-456h-672v456zM383 697h-1q-2 0 -3 -2q-16 -33 -86 -179t-81 -168v-1q0 -3 2 -3h574q2 0 2 2q1 2 0 2q-25 32 -63 95q-37 63 -61 93v1h-5l-91 -73l-186 232q0 1 -1 1zM712 680q-16 0 -30 -14q-15 -15 -14 -34t14 -34 q13 -14 34 -14q20 1 34 14.5t14 33.5q2 22 -14 34t-34 14h-4z" />
<glyph unicode="&#xe802;" d="M500 824q-82 0 -151 -40t-109 -109t-40 -151t40 -151t109 -109t151 -40t151 40t109 109t40 151t-40 151t-109 109t-151 40zM655 673q11 0 21 -21q-26 -25 -59 -62t-57 -71l-50 -72q-25 -37 -34 -51l-13 -21l-13 15q-14 17 -49 54q-35 38 -77 80l32 32l85 -75 q72 72 127 121q54 48 68 58q11 9 19 13z" />
<glyph unicode="&#xe803;" d="M500 824q-82 0 -151 -40t-109 -109t-40 -151t40 -151t109 -109t151 -40t151 40t109 109t40 151t-40 151t-109 109t-151 40zM465 701h71v-141h141v-71h-141v-141h-71v141h-141v71h141v141z" />
<glyph unicode="&#xe804;" d="M500 824q-82 0 -151 -40t-109 -109t-40 -151t40 -151t109 -109t151 -40t151 40t109 109t40 151t-40 151t-109 109t-151 40zM324 560h353v-71h-353v71z" />
<glyph unicode="&#xe805;" d="M500 824q-82 0 -151 -40t-109 -109t-40 -151t40 -151t109 -109t151 -40t151 40t109 109t40 151t-40 151t-109 109t-151 40zM403 663l97 -96l97 96l42 -42l-96 -97l96 -97l-42 -42l-97 96l-97 -96l-42 42l96 97l-96 97z" />
<glyph unicode="&#xe806;" d="M641 824q-65 0 -113 -47l-80 -77h143q6 13 20 20q15 7 29 7q27 1 45 -17.5t18 -45.5t-18 -44l-105 -106q-19 -18 -45 -18q-18 0 -34 10l-69 -69q45 -38 103 -38q66 0 113 47l105 106q47 45 47 112q0 66 -47 113t-112 47zM465 649q-66 0 -113 -47l-105 -106 q-47 -45 -47 -111.5t47 -113.5t112 -47t113 47l80 77h-143q-4 -13 -19 -20q-16 -7 -30 -7q-26 0 -44.5 18t-18.5 45t18 44l105 106q19 18 45 18q18 0 34 -10l69 69q-45 38 -103 38z" />
<glyph unicode="&#xe807;" d="M658 824q-83 0 -146 -61l-296 -293q-50 -50 -50 -116q1 -57 38 -93.5t93 -36.5q67 0 117 50l227 224q47 48 47 95q0 34 -25 56.5t-60 22.5q-49 0 -89 -40l-203 -202l36 -36l204 201q23 24 52 24q13 0 22.5 -7t9.5 -20q0 -25 -31 -58l-227 -223q-35 -35 -80 -35 q-34 -1 -56.5 21t-22.5 57q0 44 36 79l296 294q46 45 108 45q53 0 88 -35t35 -89q0 -63 -44 -107l-269 -266l37 -37l269 267q29 29 44.5 66t15.5 77q1 75 -50.5 125.5t-125.5 50.5z" />
<glyph unicode="&#xe808;" d="M497 824q-68 -1 -119 -43q-53 -44 -60 -114h-1v-102h-11h-13q-4 0 -10 -2q-7 -1 -10 -4q-4 -2 -6 -8q-2 -5 -2 -13v-288q0 -26 26 -26h418q26 0 26 26v288q0 8 -2 13q-2 4 -5 8t-10 4q-3 1 -6.5 1.5l-3.5 0.5q-4 1 -13 0h-12l-1 86h-1q-7 74 -57 123q-52 50 -122 50h-5z M502 747q43 0 73 -18.5t30 -60.5v-104h-209v100q0 43 31.5 63t74.5 20z" />
<glyph unicode="&#xe809;" d="M497 824q-62 -1 -109 -39q-49 -41 -55 -105h-1v-95h72v93q0 38 29 56.5t69 18.5t67.5 -17t27.5 -55v-144h-289q-24 0 -24 -25v-264q0 -24 24 -24h384q24 0 24 24v264q0 8 -2 13q-2 4 -4 7q-3 3 -9 4q-3 0 -6 1t-4 1h-11l-11 -1l-2 128h-1q-5 66 -52 112q-47 47 -113 47 h-4z" />
<glyph unicode="&#xe80a;" d="M557 824l-357 -357l243 -243l357 357v162l-81 81h-162zM664 745q23 -1 40 -17t17 -40t-17 -41q-15 -15 -40 -16.5t-41 16.5t-16.5 41t16.5 40t41 17z" />
<glyph unicode="&#xe80b;" d="M445 824l-301 -301l301 -299v190q35 3 69 3q51 0 97 -8q75 -13 118 -31t75 -45.5t40 -38.5t12 -17l-1 10q1 11 -4 28l-10 42q-7 24 -21 50q-15 26 -35 54q-19 28 -51 54.5t-71 49.5t-95 41q-57 18 -123 27v191z" />
<glyph unicode="&#xe80c;" d="M336 824l-301 -301l301 -299v109l-192 190l192 192v109zM555 824l-301 -301l301 -299v190q34 3 69 3q50 0 96 -8q76 -12 118 -30q43 -19 75.5 -46.5t40 -38.5t11.5 -17v10q0 11 -4 28l-11 42q-7 24 -21 50t-34 54t-52 55q-31 26 -71 49q-39 23 -95 41t-122 27v191z" />
<glyph unicode="&#xe80e;" d="M350 824l-300 -300l300 -300l92 92l-207 208l207 208zM650 824l-92 -92l207 -208l-207 -208l92 -92l300 300z" />
<glyph unicode="&#xe80f;" d="M243 754l-203 -216h162l1 -244h430l-79 81h-270v163h162zM367 754l79 -81h270v-163h-162l203 -216l203 216h-162l-1 244h-430z" />
<glyph unicode="&#xe810;" d="M341 824q-78 0 -124 -17l-15 -44q-4 -13 -15 -17q-9 -2 -15 -2h-5h-3q-9 0 -18 -10q-11 -12 -16 -40h740q-6 32 -13 39q-15 13 -66 13h-291q-22 0 -26 2q-5 2 -19 15l-15 44q-45 17 -99 17zM127 641q-17 0 -30 -13q-14 -13 -14 -33v-6l40 -313q3 -22 20.5 -37t39.5 -15 h634q23 -1 39.5 14.5t19.5 37.5l41 313v6q1 21 -13 33.5t-34 12.5h-740h-3z" />
<glyph unicode="&#xe811;" d="M161 824q-11 0 -18.5 -8t-7.5 -18v-78q0 -11 7.5 -18.5t18.5 -7.5h678q12 0 19 8q7 7 7 18v78q1 10 -7 18t-19 8h-678zM187 642q-11 0 -18.5 -8t-7.5 -19v-365q0 -10 7.5 -18t18.5 -8h626q11 0 18.5 8t7.5 18v365q0 11 -7.5 19t-18.5 8h-626zM383 563h234 q17 0 28.5 -11.5t11.5 -27.5q1 -16 -11 -27.5t-29 -11.5h-234q-17 0 -28 11.5t-11 27.5t11.5 27.5t27.5 11.5z" />
<glyph unicode="&#xe812;" d="M500 824q-82 0 -151 -40t-109 -109t-40 -151t40 -151t109 -109t151 -40t151 40t109 109t40 151t-40 151t-109 109t-151 40zM497 712q59 0 112 -36.5t71 -91.5h72l-108 -108l-108 108h72q-3 5 -4 11q0 7 -3 13q-3 5 -7 10q-37 38 -94 38q-53 1 -93 -38q-39 -40 -39 -94 q1 -54 39 -93t92.5 -39t94.5 38l37 -42q-56 -57 -134.5 -55.5t-134 56t-55.5 133.5t55.5 134.5t134.5 55.5z" />
<glyph unicode="&#xe813;" d="M500 824q-82 0 -151 -40t-109 -109t-40 -151t40 -151t109 -109t151 -40t151 40t109 109t40 151t-40 151t-109 109t-151 40zM412 718l97 -159h-62v-176h-71v176h-61zM553 665h71v-176h61l-97 -141l-97 141h62v176z" />
<glyph unicode="&#xe814;" d="M104 824v-600h792v600h-792zM385 696l277 -174l-277 -174v348z" />
<glyph unicode="&#xe815;" d="M200 824v-600h600v107h-65v57h65v107h-65v58h65v107h-65v57h65v107h-600zM467 720q37 0 62 -26t25 -61q-1 -25 -13 -46q-13 -21 -35 -32l112 -67v-93h-302v93l113 67q-22 12 -35 32t-13 46q0 35 24.5 61t61.5 26z" />
<glyph unicode="&#xe816;" d="M400 824q-19 0 -45 -11q-44 -20 -62 -48q-9 -14 -9 -32v-334l281 -175l53 29v325l-288 166q13 17 35 29q22 11 40 5l258 -138v-362l53 29v362l-289 149q-12 6 -27 6z" />
<glyph unicode="&#xe817;" d="M451 824q-4 -163 -104 -287q-4 49 -30 97q-2 -37 -29 -97q-28 -62 -34 -88v-1q-14 -69 16.5 -121t121.5 -103q-18 38 -20.5 70.5t6 53.5t26.5 45q32 48 40 95l7 -12q5 -11 8 -39q1 -30 -3 -68q29 34 44 100q13 66 7 95q77 -53 103 -153.5t-17 -186.5q63 37 102 80.5 t48 84.5q10 43 6 85q-3 44 -20 79q-18 36 -38 67t-37 49q-18 19 -28 27q9 -26 6 -54t-13 -52q-2 41 -22 78.5t-41 64.5t-50 49q-28 23 -39 31q-5 3 -16 11z" />
<glyph unicode="&#xe818;" d="M380.5 824q-30.5 0 -52.5 -21.5t-22 -53t22 -53t52.5 -21.5t52.5 21.5t22 53t-22 53t-52.5 21.5zM619.5 824q-30.5 0 -52.5 -21.5t-22 -52.5q-3 -32 22 -53.5t53 -21.5t51 22q24 21 22.5 52.5t-22.5 53t-51.5 21.5zM380.5 599q-30.5 0 -52.5 -22t-22 -53t22 -53t52.5 -22 t52.5 22t22 53t-22 53t-52.5 22zM619.5 599q-30.5 0 -52.5 -22t-22 -53q-3 -31 22 -53t53 -22t51.5 22.5t22 53t-22.5 52.5t-51.5 22zM380.5 373q-30.5 0 -52.5 -21.5t-22 -53t22 -53t52.5 -21.5t52.5 21.5t22 53t-22 53t-52.5 21.5zM619.5 373q-30.5 0 -52.5 -21.5 t-22 -53.5q-3 -31 21.5 -52.5t53 -21.5t51.5 22q24 21 22 52q-1 32 -22 53.5t-51.5 21.5z" />
<glyph unicode="&#xe819;" d="M500 824q-115 0 -197.5 -77t-82.5 -186q0 -12 1 -24l6 -114l178 13l-6 117q-2 4 -2 8q0 40 31 68.5t73 28.5t72 -28.5t30 -68.5q0 -4 -2 -8l-4 -116l176 -14l6 115q1 9 1 23q0 109 -82.5 186t-197.5 77zM410 369l-176 -15l11 -112q0 -8 6 -13q7 -6 16 -5l135 11q8 1 14 7 t5 14zM590 369l-11 -113q0 -8 5 -14q6 -7 14 -7l136 -11q8 -1 15 4q6 6 8 14l10 112z" />
<glyph unicode="&#xe81a;" d="M48 824v-600h904v600h-904zM105 768h790v-90h-790v90zM105 490h790v-209h-790v209zM177 378q-8 0 -13 -8q-5 -7 -5 -19q-1 -13 5 -19q7 -7 13 -8q7 -1 13 8q5 7 4 19t-4 19q-5 7 -13 8zM222 378q-7 0 -12 -8q-5 -7 -5 -19q2 -13 5 -19q3 -7 12 -8q10 -1 14 8q4 8 4 19 q1 12 -4 19.5t-14 7.5zM267 378q-8 0 -13 -8q-4 -7 -4 -19q1 -13 4 -19q3 -7 13 -8q9 -1 13 8q4 8 5 19q1 12 -5 19t-13 8zM313 378q-9 0 -14 -8q-4 -7 -4 -19q0 -14 4 -19q6 -7 14 -8t13 8q5 7 5 19q0 13 -5 19q-4 8 -13 8zM384 378q-11 0 -14 -8q-4 -7 -4 -19 q-2 -13 4 -19q6 -7 14 -8q7 -1 13 8q5 7 5 19q-1 12 -5 19q-4 8 -13 8zM428 378q-9 0 -14 -8q-4 -7 -4 -19q1 -13 4 -19q3 -7 14 -8q10 -1 13 8q4 10 4 19q1 12 -4 19q-4 8 -13 8zM472.5 378q-8.5 0 -13.5 -8t-5 -19q-2 -13 5 -19q9 -7 14 -8t12 8q6 8 5 19q0 12 -5 19 q-4 8 -12.5 8zM518 378q-9 0 -14 -8q-4 -7 -4 -19q-2 -13 4 -19q8 -7 14 -8q7 -1 13 8q5 7 4 19t-4.5 19.5t-12.5 7.5zM176 372h1q4 0 7 -5q3 -4 2.5 -15.5t-2.5 -16.5t-7 -5t-8 5t-3 16q-2 10 3 16q4 4 7 5zM221 372h1q6 0 8 -5q2 -6 3 -16t-3 -16q-4 -5 -8 -5t-7 5 q-2 5 -2 16l2 16q2 4 6 5zM266 372h1q5 0 8 -5q3 -4 2.5 -15.5t-2.5 -16.5t-8 -5t-8 5q-2 4 -2 16q-2 9 2 16q4 4 7 5zM311 372h1q6 0 9 -5q2 -4 2 -16q0 -11 -2 -16q-3 -5 -8.5 -5t-8.5 5q-2 5 -2 16t2 16q4 4 7 5zM382 372h1q5 0 8 -5q3 -4 3 -16q0 -11 -3 -16t-8 -5t-8 5 q-2 5 -2 16t2 16q3 4 7 5zM426 372h1q5 0 9 -5q2 -4 2 -16q0 -11 -2 -16q-3 -5 -8.5 -5t-8.5 5q-2 5 -2 16t2 16q3 4 7 5zM472 372h2q8 0 8 -5q2 -8 2 -16q1 -11 -2 -16t-8 -5q-6 0 -9 5q-4 6 -4 16q3 13 4 16q3 4 7 5zM517 372h1q3 0 7 -5q3 -4 2.5 -15.5t-2.5 -16.5 q-3 -5 -7 -5q-6 0 -8 5q-3 5 -3 16q-2 10 3 16q4 4 7 5zM337 347v-5h20v5h-20z" />
<glyph unicode="&#xe81b;" d="M116 824v-150h768v150h-768zM597 788h248v-77h-248v77zM116 599v-150h768v150h-768zM428 563h417v-77h-417v77zM116 374v-150h768v150h-768zM689 338h156v-76h-156v76z" />
<glyph unicode="&#xe81c;" d="M200 824l208 -208v-392l184 151v241l208 208h-600z" />
<glyph unicode="&#xe81d;" d="M439 824v-139h-72l133 -199l133 199h-72v139h-122zM200 514v-290h600v290h-197q0 -45 -30 -74q-31 -29 -73 -29q-42 -1 -72.5 29t-30.5 74h-197z" />
<glyph unicode="&#xe81e;" d="M500 824q-124 1 -212 -87.5t-88 -212.5q2 -124 88 -212t212 -88q126 1 212.5 87.5t87.5 212t-88 212.5q-89 88 -212 88zM506 755q90 0 157 -68q68 -69 68 -163t-68 -163q-69 -68 -163 -68q-94 1 -162.5 68.5t-68.5 162.5q0 97 68 163q69 66 163 68h6zM425 674v-300 l225 150z" />
<glyph unicode="&#xe820;" d="M500 824q-124 1 -212 -87.5t-88 -212.5v0q1 -125 88.5 -212.5t211.5 -87.5q82 -1 151 40.5t109 109.5l-105 61q-24 -41 -65 -65t-90 -24q-74 0 -126 52t-52 126t52 126t126 52q62 0 112 -39l-79 -56l267 -89v279l-87 -62q-88 89 -213 89z" />
<glyph unicode="&#xe821;" d="M468 824q-111 0 -189.5 -78.5t-78.5 -189.5q0 -112 78.5 -191t189.5 -79q85 0 154 50l111 -112l67 67l-112 111q50 69 50 154q1 111 -79 189.5t-191 78.5zM463 747h5q81 -2 136.5 -56t56 -135t-56.5 -136q-57 -56 -136 -56q-79 -1 -135.5 55.5t-56.5 136.5q1 77 57 135 q53 56 130 56zM431 670v-77h-77v-76h77v-78h76v78h78v76h-78v77h-76z" />
<glyph unicode="&#xe822;" d="M712 824l-121 -121l-87 89v-264h264l-89 87l121 121zM232 520l89 -87l-121 -121l88 -88l121 121l87 -89v264h-264z" />
<glyph unicode="&#xe823;" d="M535 824l89 -89l-120 -121l86 -86l121 120l89 -89v265h-265zM410 520l-121 -120l-89 89v-265h265l-89 89l120 121z" />
<glyph unicode="&#xe824;" d="M468 824q-111 0 -189.5 -78.5t-78.5 -189.5q0 -112 78.5 -191t189.5 -79q85 0 154 50l111 -112l67 67l-112 111q50 69 50 154q1 111 -79 189.5t-191 78.5zM463 747h5q81 -2 136.5 -56t56 -135t-56.5 -136q-57 -56 -136 -56q-79 -1 -135.5 55.5t-56.5 136.5q1 77 57 135 q53 56 130 56zM354 593v-76h231v76h-231z" />
<glyph unicode="&#xe825;" d="M500 824q-7 0 -12 -6q-5 -5 -5 -15v-54q0 -8 5 -14t12 -5q8 0 13 5q6 6 6 14v54q0 10 -6 15q-5 6 -13 6zM651 789q-3 0 -6 -1q-7 -2 -13 -9l-29 -46q-4 -7 -4 -16q1 -8 8 -11q8 -4 14 -2t12 9l30 46q5 7 3 15q-1 8 -7 13q-4 2 -8 2zM350 789q-5 0 -8 -2q-8 -5 -9 -13v1 q-1 -8 4 -16l30 -45q4 -8 12 -9q9 -2 14 1q6 3 7 11.5t-3 15.5l-30 46q-5 7 -12 9q-3 1 -5 1zM498 702q-30 0 -56 -8t-45 -24.5t-30 -39.5q-25 -58 9 -136l29 -56q6 -13 23 -80q3 -7 11 -9h122q7 2 9.5 9.5t9.5 36t15 43.5l28 56q35 73 9 136q-11 23 -30 39.5t-45 24.5 t-56 8h-3zM254 675q-3 0 -5 -1q-8 -3 -11.5 -9.5t0 -14.5t11.5 -10l49 -24q8 -3 16 0t11 10t0 14t-12 11l-49 21q-5 4 -10 3zM746 675q-5 0 -9 -3l-51 -21q-8 -4 -11 -11t0 -14t10.5 -9.5t15.5 0.5l49 23q8 3 12.5 10.5t0 14.5t-11.5 9q-3 1 -5 1zM312 529h-5l-54 -10 q-7 0 -13 -6q-5 -6 -4 -13v-1q2 -7 8.5 -11.5t14.5 -3.5l53 8q10 2 15 8q4 6 4 14q-1 8 -8 12q-5 3 -11 3zM688 529q-6 0 -11 -3q-6 -4 -7 -12q-2 -7 3 -14t13 -8l54 -8q10 -1 16 3t8 12q1 7 -4.5 13t-13.5 7l-54 10h-4zM438 328q-11 0 -11 -10v-21q0 -6 3 -8.5t8 -2.5h125 q4 0 7 3t3 8v21q0 4 -3 7t-7 3h-125zM438 266q-5 -1 -8 -3t-3 -7v-21q0 -11 11 -11h125q4 0 7 3t3 8v21q0 4 -3 7t-7 3h-125z" />
<glyph unicode="&#xe826;" d="M322 824q-10 0 -21 -10l-84 -83q-17 -16 -17 -46q-3 -50 41 -141q71 -134 227 -247q108 -71 193 -73q29 0 45 16l86 85q9 9 7.5 23t-15.5 23l-123 73q-20 11 -43 -7l-37 -37q-4 -5 -17 -1q2 -11 -24 9t-25 15q1 -4 -13 8q-3 4 -8 8l-40 38q-65 59 -80 119q0 4 3 8l31 32 q19 19 8 43l-68 128q-11 17 -25 17h-1z" />
<glyph unicode="&#xe827;" d="M484 824q-23 -1 -45 -8v-81h-33v68q-23 -12 -41 -27v-329q59 -48 135 -48t135 48v329q-18 15 -40 26v-67h-33v81q-24 6 -46 8v-89h-32v89zM300 562v-169q18 -17 38 -30q50 -32 107 -43v19h110v-19q58 11 107 43q19 13 38 30v169h-38v-149q-72 -58 -162 -58t-162 58v149 h-38zM555 320q-27 -5 -55 -5q-30 0 -55 5v-55h-64v-41h238v41h-64v55z" />
<glyph unicode="&#xe828;" d="M326 824q-13 0 -22 -9t-9 -23v-537q0 -13 9.5 -22t22 -9t21.5 9t10 22v324q16 7 31 8q50 -6 111 -40t111 -39q21 0 47 8t47 23v222q-23 -19 -46.5 -33t-47.5 -15q-50 6 -111 40t-111 39q-13 0 -31 -3v3q0 14 -9 23t-23 9z" />
<glyph unicode="&#xe829;" d="M624 824q-22 0 -36.5 -14.5t-15 -36.5t15 -37t36.5 -15h46q11 0 19 -8t8 -18v-341q0 -10 -7.5 -18.5t-19.5 -8.5h-46q-22 1 -36.5 -14.5t-14.5 -36.5q-1 -21 14.5 -36.5t36.5 -15.5h46q53 -1 91.5 37.5t38.5 92.5v341q1 53 -37.5 91t-92.5 38h-46zM437.5 740 q-21.5 0 -36.5 -15.5t-15 -36.5t15 -36l71 -71h-220q-21 1 -36.5 -14.5t-15.5 -36.5q1 -22 15.5 -36.5t36.5 -14.5h220l-68 -68q-14 -16 -14.5 -36.5t15 -36t36.5 -15.5t36 15l155 155q16 16 16 37t-16 36l-158 159q-15 15 -36.5 15z" />
<glyph unicode="&#xe82a;" d="M330 824q-54 0 -92.5 -37.5t-37.5 -91.5v-341q0 -54 38 -91.5t92 -38.5h46q21 0 36.5 15.5t15 36.5t-14.5 36.5t-37 14.5h-46q-12 0 -19.5 8.5t-7.5 18.5v341q0 10 8 18t19 8h46q21 0 36.5 15t15 37t-14.5 36q-15 15 -37 15h-46zM591 725q-22 0 -37 -14.5t-15 -36.5 t15 -36l70 -72h-220q-21 1 -36.5 -14.5t-15.5 -36.5v1q0 -22 15.5 -37t36.5 -15h220l-67 -67q-15 -15 -15 -36.5t14.5 -36.5t36.5 -15t37 15l155 155q15 15 15 36t-15 37l-159 159q-14 14 -35 14z" />
<glyph unicode="&#xe82b;" d="M283 824q-50 -1 -86 -36.5t-36 -85.5v-356q0 -49 35.5 -85.5t86.5 -36.5h426q51 1 86.5 36.5t35.5 85.5v44q1 20 -14 34q-14 14 -34 14t-34.5 -14t-14.5 -34v-44q0 -11 -7 -18q-8 -7 -18 -7h-426q-11 -1 -18 7t-7 18v356q0 11 7 18q8 7 18 7h93q21 1 35.5 14.5t14.5 34.5 q-1 19 -15 34q-13 14 -35 14h-93zM615 789q-4 0 -7 -2q-9 -6 -8 -22v-61h-15q-53 -6 -99 -30q-46 -25 -79 -65t-52.5 -90t-17.5 -107q33 58 88 95t121 43q30 3 54 -2v-74q0 -16 8 -22t19 3l205 150q8 6 8 14l-2 8q-1 3 -4 5l-2 2l-205 150q-6 5 -12 5z" />
<glyph unicode="&#xe82c;" d="M573.5 824q-3.5 0 -5.5 -3l-249 -300l167 -66l-66 -221q-2 -4 2 -8q2 -2 6 -2q4 1 6 3l247 299l-166 67l67 221q1 5 -3 8q-2 2 -5.5 2z" />
<glyph unicode="&#xe82d;" d="M500 824q-8 0 -17 -6q-17 -14 -30 -52l-47 -142h-155q-61 0 -69 -26t42 -62l3 -3l121 -86l-47 -141v-2q-20 -59 2 -75t72 20l2 1l122 88l122 -87l3 -2q51 -36 72 -19.5t3 74.5l-1 2l-46 141l120 87l4 3q31 22 40 42.5t-9.5 32.5t-58.5 12h-155l-46 142h-1q-13 39 -30 52 q-8 6 -16 6z" />
<glyph unicode="&#xe82e;" d="M500 824q-13 0 -25 -14.5t-21 -43.5v-1l-48 -142h-155q-40 1 -58 -11.5t-10 -31.5v-1q8 -20 41 -44h2l1 -2l122 -86l-48 -144q-13 -38 -7.5 -58.5t25.5 -20.5q23 0 57 25l124 89l121 -87l2 -1l2 -1q32 -24 56 -24q20 0 25.5 20t-6.5 58l-49 144l122 86l3 3 q34 23 41.5 43.5t-10.5 32.5q-17 11 -58 11h-155l-47 142l-1 1q-9 29 -21 43.5t-25 14.5zM500 717l37 -112l14 -42h161l-130 -93l50 -152l-132 94l-132 -94l50 152l-130 93h161z" />
<glyph unicode="&#xe82f;" d="M354 816q-36 -1 -70 -20.5t-54 -53.5q-20 -35 -16 -69q2 -29 5 -53q-9 -12 -9 -39q0 -37 29 -49q9 -25 21 -38q20 -24 20 -41q0 -25 -13 -48.5t-37 -36.5q-13 -6 -32 -14l-44 -16q-7 -3 -15 -6t-14 -5l-9 -3l-1 -108h563l-1 14q0 12 -6 32q-7 19 -18 30q-10 12 -42 25 q-34 13 -73 27q-40 15 -59 24q-24 13 -37 36q-13 24 -13 49q0 17 21 41q11 12 20 38q29 12 29 49q0 27 -9 39q3 23 5 53q2 26 -8.5 52.5t-30.5 46.5t-47 32t-55 12zM682 710q-28 0 -54 -17q-28 -18 -44 -46t-14 -57q2 -24 5 -43q-8 -11 -8 -32q0 -30 24 -40q8 -22 17 -32 q5 -5 8 -10l5 -10q3 -6 3 -13q0 -28 -17 -50q31 -11 50.5 -23.5t33.5 -28.5q8 -7 15 -21q6 -12 10 -24q1 -6 4 -23q2 -12 2 -17v-7h163v86q-10 5 -33 13q-17 6 -38 14q-13 5 -27 12q-19 10 -30 29t-11 40q0 7 3 13q4 7 6 10t8 10q10 11 17 32q23 9 23 40q0 22 -7 32 q3 21 5 43q2 28 -14.5 57t-44.5 46q-27 17 -57 17h-3z" />
<glyph unicode="&#xe830;" d="M491 824q-20 0 -29 -5q-19 -9 -27 -30l-2 -6h-1q-7 5 -21 0q-16 -4 -27 -16q-14 -13 -22 -37q-7 -23 -9 -52q-2 -33 -1 -62q2 -35 5 -61q4 -33 8 -56q4 -27 6 -38l3 -15h52q-3 -23 -15.5 -42t-33.5 -30q-18 -9 -58 -24q-38 -14 -71 -27q-32 -13 -42 -24q-11 -12 -17 -31 q-6 -20 -7 -29v-15h636v13q-1 12 -7 32q-6 18 -16.5 29t-42 24.5t-71.5 27.5t-58 24q-21 10 -34 30t-15 42h52l3 4q2 4 5 19q3 20 6 33q3 16 8 55q3 30 6 78q1 36 -4 65q-5 28 -16 47.5t-26 34.5q-15 14 -29 22q-13 7 -32 13q-19 5 -36 7h-10h-10z" />
<glyph unicode="&#xe831;" d="M329 824v-84h-22v-76h-63q-22 -1 -36 -15q-14 -15 -15 -36v-239q1 -21 15 -35q14 -15 36 -15h54l-18 -100h451l-23 100h50q20 0 34 15q14 14 15 35v239q-1 21 -15 36q-14 14 -34 15h-63v76h-23v84h-343zM352 793h298v-190h-298v190zM278 609q15 0 25 -10t10 -24.5 t-10 -24.5t-25 -10q-14 0 -24.5 10t-10.5 25q0 14 11 24q10 9 24 10zM343 412h315l31 -158h-370zM393 351v-23h90v23h-90zM522 351v-23h90v23h-90z" />
<glyph unicode="&#xe832;" d="M541 824v-262h259v3q-2 111 -75 184q-73 72 -184 75zM459 743q-111 -2 -183.5 -75.5t-75.5 -184.5q2 -110 75 -183t184 -76q111 3 184 76q72 72 76 180h-260v263zM719 480v3v-2v-1z" />
<glyph unicode="&#xe833;" d="M759 824q-189 -20 -327.5 -153t-327.5 -152l137 -295q201 33 335 160.5t320 144.5q-76 164 -137 295zM722 768q44 -95 90 -192q-56 -11 -105.5 -36t-95.5 -59q11 62 -14 118q-11 23 -29.5 42.5t-45.5 29.5q45 34 95 60q50 25 105 37zM693 692q-5 -1 -7 -2l-7 -3 q16 -32 31 -65l7 3q2 0 7 3q-5 12 -15 32zM724 628zM662 680l-14 -7q17 -33 31 -66l14 7q-16 34 -31 66zM632 664l-7 -4q-1 0 -3.5 -1.5t-3.5 -2.5l30 -66l7 4q4 2 7 4q-14 34 -30 66zM388 567q-4 -29 -1 -60q3 -30 15 -58q12 -24 30.5 -43.5t44.5 -29.5q-45 -34 -94 -59.5 t-105 -36.5q-49 105 -90 192h1q57 10 105 36q50 26 94 59zM321 460q-3 -1 -8.5 -2.5t-7.5 -1.5q9 -18 13 -27q4 3 7 3q-3 22 -4 28zM325 432zM345 458q-5 -12 -10 -27q1 -1 2 -1l5 -3l16 24q-6 5 -13 7zM287 441q-6 -6 -8 -14l26 -11q3 3 4 7q-11 8 -22 18zM374 434 q-12 -8 -25 -15v-1q2 -2 2 -7l14 3l5 1t8 2q-3 13 -4 17zM305 405q-16 -1 -30 -1q1 -8 5 -15q17 6 27 10q-2 3 -2 6zM280 389v-1v1zM349 401l-3 -7q8 -6 22 -17q4 5 9 15q-18 5 -28 9zM314 389l-19 -20q6 -5 15 -8q2 5 5 14t4 11q-1 0 -3 1.5zM337 386q-3 -1 -7 -1 q4 -25 5 -28q6 0 15 4h-1q-6 15 -12 25z" />
<glyph unicode="&#xe834;" d="M109 824v-600h782v600h-782zM164 770h127v-127h-127v127zM346 770h127v-127h-127v127zM527 770h129v-127h-129v127zM710 770h127v-127h-127v127zM164 589h127v-129h-127v129zM346 589h127v-129h-127v129zM527 589h129v-129h-129v129zM710 589h127v-129h-127v129zM164 405 h127v-126h-127v126zM346 405h127v-126h-127v126zM527 405h129v-126h-129v126zM710 405h127v-126h-127v126z" />
<glyph unicode="&#xe835;" d="M211 824q-22 -1 -37 -15q-15 -15 -15 -37v-312q0 -21 15 -36t37 -15h73v75h-46v265h329v-35h80v58q-1 22 -15 37t-36 15h-385zM404 646q-21 -1 -36 -16t-15 -36v-319q1 -21 15 -36q15 -15 36 -15h386q22 1 36 15q15 15 15 36v319q0 22 -15 36q-14 15 -36 16h-386z M432 571h330v-273h-330v273z" />
<glyph unicode="&#xe836;" d="M112 824v-156h155v156h-155zM372 772v-79h516v79h-516zM112 601v-156h155v156h-155zM372 549v-78h516v78h-516zM112 379v-155h155v155h-155zM372 339v-78h516v78h-516z" />
<glyph unicode="&#xe837;" d="M368 824q-9 0 -14 -4q-6 -4 -6 -14l59 -129q-64 -28 -103 -85q-40 -57 -40 -131q2 -101 69 -167.5t168 -69.5q100 3 166 70q66 66 69 167q-1 74 -40 131t-103 85l59 129q0 10 -6 14t-14 4h-264zM471 640h57v-7q-8 -2 -11.5 -5.5t-3.5 -7.5v-13q18 0 39 -6q19 -7 52 -19 q6 -3 9 -3q5 1 10 6l5 -4l-33 -65l-6 3q1 7 -4 13t-21 14q-26 13 -51 14v-63h7q52 -5 80 -25.5t28 -57.5q-1 -40 -31.5 -64t-83.5 -27v-14q0 -6 3 -9t11 -5v-7h-57v7q8 3 10 5q3 4 3 9v14q-48 3 -100 29l-1 0.5t-2 0.5h-3q-3 1 -9 -3l-4 3l30 68l5 -3q0 -15 21 -28t63 -19 v70q-61 5 -86 23t-24.5 57.5t29.5 62.5q28 22 81 25v11q0 3 -3 8q-2 3 -9 5v7zM483 562q-19 -2 -28 -5q-12 -4 -19 -13q-8 -7 -7 -15q0 -16 13 -21q14 -5 41 -8v62zM513 436v-66q29 4 42.5 14t13.5 27q1 14 -12 18q-10 5 -44 7z" />
<glyph unicode="&#xe838;" d="M500 824l-343 -86v-85l343 -86l343 86v85zM157 567v-86l343 -85l343 85v86l-343 -86zM157 396v-86l343 -86l343 86v86l-343 -86z" />
<glyph unicode="&#xe839;" d="M612 824v-72q0 -46 -32 -80l-213 -210q-49 -50 -53 -125h-76l113 -113l112 113h-75q3 41 32 72l213 210q55 55 55 133v72h-76zM591 503l-54 -53l43 -41q29 -31 32 -72h-75l113 -113l112 113h-76q-4 75 -53 125z" />
<glyph unicode="&#xe83a;" d="M600 824v-100h-350q-63 0 -106.5 -43.5t-43.5 -105.5v-51h100v51q0 20 14 35q15 14 36 14h350v-100l200 151zM800 524v-50q0 -21 -14 -36q-15 -14 -35 -14h-351v100l-200 -149l200 -151v100h351q63 -1 106 43.5t43 106.5v50h-100z" />
<glyph unicode="&#xe83b;" d="M725 824q-31 0 -53 -22t-22 -53q0 -17 11 -37l-134 -134q-30 21 -64 21q-31 0 -58 -16t-41 -43l-91 30q-3 12 -12.5 20.5t-22.5 8.5q-16 -1 -27 -11t-11 -26t11 -27q11 -10 27 -10q13 0 24 9l90 -29q-2 -11 -2 -18q1 -47 34 -80t79 -33t79 34l113 -82q-5 -14 -5 -26 q-1 -32 22 -54t53 -22t52.5 22t22.5 53t-22.5 53t-52.5 22h-1q-25 0 -47 -17l-114 81q12 24 12 49q0 35 -21 65l133 134q20 -12 37 -12q31 1 53 23q23 21 22 52q0 31 -21.5 53t-52.5 22z" />
<glyph unicode="&#xe83c;" d="M664 824q-8 0 -23 -19l-57 -70q-36 -44 -69 -66l-31 -21q-27 -19 -41 -29q-15 -10 -35.5 -27t-30.5 -30.5t-10 -22.5v-228q0 -31 96 -59t192 -28q31 0 71.5 141.5t40.5 189.5q0 20 -35 31q-33 11 -72 16q-37 5 -38 9q0 1 26.5 40t39 79.5t-19.5 91.5q-1 2 -4 2zM333 608 q-15 0 -36 -6q-20 -6 -42 -31t-22 -67v-161q0 -42 22 -66q22 -25 41 -30q20 -6 37 -6q8 0 1 7q-34 36 -34 69v213q0 36 33 69q10 9 0 9z" />
<glyph unicode="&#xe83d;" d="M345 824q-29 0 -70 -142t-41 -190q0 -20 35 -31q34 -11 72 -16q36 -5 38 -9q0 -1 -26.5 -39.5t-39.5 -79t19 -91.5q7 -8 27 17l57 70q36 44 69 66l22 15q7 5 17 11.5t11 6.5l27 20q18 13 28 21q8 7 21 19q12 11 17 20.5t5 15.5v228q0 31 -96 59.5t-192 28.5zM667 806 q-9 0 -2 -7q35 -36 35 -69v-212q0 -36 -32 -70q-10 -9 -1 -9q13 0 26 4q14 4 32 14t29.5 32t11.5 54v161q0 42 -22 66q-21 24 -41 30q-19 6 -36 6z" />
<glyph unicode="&#xe83e;" d="M494 824q-10 0 -16 -1q-11 0 -17 -3q-9 -4 -16 -14q-8 -9 -9 -14q-2 -5 -3 -8h-1q-12 4 -30.5 -3.5t-30.5 -29.5q-8 -15 -10 -35q-2 -21 -1 -28l1 -14q4 -35 6 -52q-10 -12 -10 -39q0 -35 29 -47q9 -25 20 -38q20 -23 20 -41q0 -24 -12.5 -47.5t-35.5 -35.5 q-20 -9 -59 -23q-38 -14 -71 -27q-31 -14 -42 -25t-17 -31q-6 -19 -7 -29q-1 -8 -1 -15h638l-1 13q0 15 -6 33t-18 29q-10 11 -42 24q-31 14 -71 28q-40 13 -59 23q-22 12 -35 35t-13 48q0 18 20 40q11 14 20 39q29 12 29 47q0 27 -9 38q3 24 5 53v13q0 32 -9.5 54.5 t-23 38.5t-31.5 25q-17 8 -35 13q-21 5 -34 6h-12z" />
<glyph unicode="&#xe840;" d="M278 824q-29 1 -52.5 -19t-25.5 -48v-224v-224q-4 -30 16.5 -56t51.5 -29h224h225q30 -4 55 16.5t28 51.5v224.5v225.5q4 32 -19.5 57.5t-55.5 24.5h-440h-7zM462 712h76v-151h150v-75h-150v-150h-76v150h-150v75h150v151z" />
<glyph unicode="&#xe841;" d="M275 824q-30 0 -52.5 -22t-22.5 -53v-450q0 -30 22.5 -52.5t52.5 -22.5h450q32 0 53.5 22.5t21.5 52.5v450q0 32 -21.5 53.5t-53.5 21.5h-450zM312 561h376v-75h-376v75z" />
<glyph unicode="&#xe842;" d="M285 824l-210 -180l210 -180v110h500v-210h-650v-140h690q40 0 70 30t30 70v290q0 42 -30 71t-70 29h-540v110z" />
<glyph unicode="&#xe843;" d="M408 824q-19 0 -37 -13t-26 -30l-18 -49h-80q-39 0 -66 -27t-27 -66v-323q0 -38 27 -65t66 -27h507q39 0 65.5 27t26.5 65v323q0 38 -27 65.5t-65 27.5h-81l-18 49q-8 17 -26 30q-17 13 -36 13h-185zM504 639q63 0 110 -47q49 -49 47.5 -114t-47.5 -114q-46 -48 -114 -48 q-67 1 -114 48t-47 114q-3 69 47 114q49 45 114 47h4zM500 582q-43 0 -73.5 -30.5t-30.5 -73.5q-1 -42 31 -73q31 -31 73 -30q43 0 73.5 30t30 73t-30 73.5t-73.5 30.5z" />
<glyph unicode="&#xe844;" d="M450 824q-10 -1 -18 -8q-7 -7 -7 -17v-175h-100q-17 0 -23 -15q-7 -16 5 -28l175 -175q8 -7 18 -7t17 7l175 175q13 12 6 28q-7 15 -23 15h-100v175q0 10 -7.5 17.5t-17.5 7.5h-100zM213 424q-16 0 -27 -11t-11 -27v-125q0 -15 11 -26t27 -11h574q16 1 27 11.5t11 25.5 v125q0 16 -11 27q-12 11 -27 11h-181l-53 -53q-23 -22 -53 -22t-54 22l-52 53h-181zM650.5 324q9.5 0 17 -7.5t7 -17.5t-7 -17.5t-17.5 -7.5t-18 7.5t-7 17.5q-1 10 7.5 17.5t18 7.5zM749.5 324q11.5 0 18 -7.5t7.5 -17.5t-7 -17.5t-18 -7.5q-11 0 -18 7.5t-7 17.5 q2 10 7.5 17.5t17 7.5z" />
<glyph unicode="&#xe845;" d="M499.5 824q-9.5 0 -16.5 -7l-168 -168q-12 -11 -5 -26q6 -15 22 -15h96v-168q0 -9 7 -16.5t17 -7.5h96q10 1 17 8q7 6 7 16v168h96q16 0 22 15t-6 26l-168 168q-7 7 -16.5 7zM222 416q-13 0 -23 -10q-11 -11 -11 -25v-121q1 -14 11 -25t25 -11h552q15 0 25.5 10.5 t10.5 25.5v121q0 15 -10.5 25t-25.5 10h-160q-9 -21 -27 -34q-18 -14 -41 -14h-96q-23 0 -41.5 13.5t-26.5 34.5h-160h-2zM641 320h3q10 -1 17 -7q7 -5 7 -16q-1 -12 -7 -18q-7 -6 -17 -7q-11 0 -17.5 7.5t-6.5 17.5q-1 8 7 16q6 7 14 7zM735 320h5q11 -1 17 -7q6 -5 7 -16 q0 -12 -7 -18q-8 -6 -17 -7q-11 0 -17.5 7.5t-6.5 17.5q1 8 7 16q4 7 12 7z" />
<glyph unicode="&#xe846;" d="M275 824q-13 -1 -22.5 -10t-9.5 -22v-536q1 -13 9 -22q10 -10 23 -10h450q14 1 23 10t9 22v354h-182q-13 -1 -22.5 8.5t-9.5 23.5v182h-268zM586 811v-159h158q-5 8 -10 12l-136 137q-5 5 -12 10zM382 567h236q5 0 8 -3t3 -8v-21q0 -5 -3 -8t-8 -3h-236q-5 0 -8 3t-3 8 v21q0 4 3 8q3 3 8 3zM382 481h236q5 0 8 -3t3 -7v-22q0 -4 -3 -8q-3 -3 -8 -3h-236q-5 0 -8 3t-3 8v22q0 4 3 7t8 3zM382 396h236q5 0 8 -3t3 -8v-22q0 -4 -3 -8q-3 -3 -8 -3h-236q-5 0 -8 3t-3 8v22q0 4 3 8q3 3 8 3z" />
<glyph unicode="&#xe847;" d="M403 824q-13 -1 -22 -10t-9 -22v-515q0 -22 15.5 -37.5t37.5 -15.5h289q36 0 61 25.5t25 60.5v257q-1 23 -12 43t-31 31v55q0 13 -6.5 29t-15.5 25l-51 51q-11 10 -26 16q-16 7 -30 7h-225zM414 781h214v-54q0 -13 10 -22t23 -9h53v-86h-300v171zM253 696 q-22 -1 -37.5 -16.5t-15.5 -37.5v-365q-1 -22 15.5 -37.5t37.5 -15.5h44q22 0 37.5 15.5t15.5 37.5v365q0 21 -15.5 37.5t-37.5 16.5h-44zM457 535h43q5 0 8 -3t3 -8v-43q0 -4 -3 -7t-8 -3h-43q-5 0 -7 3q-3 3 -3 7v43q0 5 3 8q2 3 7 3zM543 535h43q5 0 8 -3t3 -8v-43 q0 -4 -3 -7t-8 -3h-43q-5 0 -8 3q-3 2 -3 7v43q0 4 3 8q3 3 8 3zM628 535h44q5 0 7 -3q3 -3 3 -8v-43q0 -4 -3 -7q-2 -3 -7 -3h-44q-5 0 -7 3q-3 3 -3 7v43q0 5 3 8q2 3 7 3zM457 449h43q5 0 8 -3t3 -8v-42q0 -5 -3 -8t-8 -3h-43q-5 0 -7 3q-3 3 -3 8v42q0 5 3 8q2 3 7 3z M543 449h43q5 0 8 -3t3 -8v-42q0 -5 -3 -8t-8 -3h-43q-5 0 -8 3t-3 8v42q0 5 3 8t8 3zM628 449h44q5 0 7 -3q3 -3 3 -8v-42q0 -5 -3 -8q-2 -3 -7 -3h-44q-5 0 -7 3q-3 3 -3 8v42q0 5 3 8q2 3 7 3zM457 363h43q5 0 8 -3t3 -8v-42q0 -5 -3 -8t-8 -3h-43q-5 0 -7 3q-3 3 -3 8 v42q0 5 3 8q2 3 7 3zM543 363h43q5 0 8 -3t3 -8v-42q0 -5 -3 -8t-8 -3h-43q-5 0 -8 3t-3 8v42q0 5 3 8t8 3zM628 363h44q5 0 7 -3q3 -3 3 -8v-42q0 -5 -3 -8q-2 -3 -7 -3h-44q-5 0 -7 3q-3 3 -3 8v42q0 5 3 8q2 3 7 3z" />
</font>
</defs>
</svg>
